<?xml version="1.0" encoding="utf-8"?>
<!-- Generator: Adobe Illustrator 23.0.2, SVG Export Plug-In . SVG Version: 6.00 Build 0)  -->
<svg version="1.1" id="Layer_1" xmlns="http://www.w3.org/2000/svg" xmlns:xlink="http://www.w3.org/1999/xlink" x="0px" y="0px"
	 viewBox="0 0 1481 1481" style="enable-background:new 0 0 1481 1481;" xml:space="preserve">
<style type="text/css">
	.st0{fill:#121212;}
	.st1{fill:none;stroke:#231F20;stroke-width:10;stroke-miterlimit:10;}
	.st2{fill:none;stroke:#231F20;stroke-width:6.2261;stroke-miterlimit:10;}
	.st3{fill:#231F20;}
	.st4{fill:#FDD22E;}
	.st5{fill:#FBC211;}
	.st6{fill:#FEE5A0;}
	.st7{fill:#FFDD81;}
	.st8{fill:#010101;}
	.st9{fill:#171717;}
	.st10{fill:#B42025;}
	.st11{fill:#E23B30;}
	.st12{fill:#F0534D;}
	.st13{fill:#F16A67;}
	.st14{fill:#ED3043;}
	.st15{fill:#F26B6B;}
	.st16{fill:#E24445;}
	.st17{fill:#EE323F;}
	.st18{fill:#F37575;}
	.st19{fill:#42843E;}
	.st20{fill:#88C540;}
	.st21{fill:#7EC357;}
	.st22{fill:#8CC758;}
	.st23{fill:#66B045;}
	.st24{fill:#327284;}
	.st25{fill:#39BDAD;}
	.st26{fill:#31B5C3;}
	.st27{fill:#43C0BE;}
	.st28{fill:#249AB0;}
	.st29{fill:#853D67;}
	.st30{fill:#AD55A1;}
	.st31{fill:#C062A6;}
	.st32{fill:#B65EA5;}
	.st33{fill:#B14994;}
	.st34{fill:#B42126;}
	.st35{fill:#39B44A;}
	.st36{fill:#5FBB46;}
	.st37{fill:#7AC14F;}
	.st38{fill:#8BC970;}
	.st39{fill:#B53181;}
	.st40{fill:#E24588;}
	.st41{fill:#ED64A5;}
	.st42{fill:#EB7DB2;}
	.st43{fill:#31A4B5;}
	.st44{fill:#48AFE0;}
	.st45{fill:#66C8ED;}
	.st46{fill:#7FCEEA;}
	.st47{fill:#F16163;}
	.st48{fill:#EE3332;}
	.st49{fill:#F16364;}
	.st50{fill:#1F1B53;}
	.st51{fill:#4152A4;}
	.st52{fill:#221E52;}
	.st53{fill:#4153A4;}
	.st54{fill:#303871;}
	.st55{fill:#4555A5;}
	.st56{fill:#323972;}
	.st57{fill:#F1554A;}
	.st58{fill:#EA2D2F;}
	.st59{fill:#F1574B;}
	.st60{fill:#ED2024;}
	.st61{fill:#F9B9BA;}
	.st62{fill:#F59092;}
	.st63{fill:#EF3733;}
	.st64{fill:#EF3D3A;}
	.st65{fill:#F15E5F;}
	.st66{fill:#EA1D25;}
	.st67{fill:#EF5541;}
	.st68{fill:#EA2225;}
	.st69{fill:#FFFFFF;}
	.st70{fill:#FFFFFF;stroke:#171717;stroke-width:50;}
	.st71{fill:#FFFFFF;stroke:#171717;stroke-width:45;}
</style>
<g>
	<g>
		<path class="st9" d="M276.6,1232.8c0-10.3-3.6-18.1-10.9-23.6c-7.2-5.5-20.3-11.3-39.1-17.4s-33.7-12.1-44.7-18
			c-29.9-16.2-44.9-38-44.9-65.4c0-14.2,4-27,12-38.1c8-11.2,19.6-19.9,34.6-26.2c15-6.3,31.9-9.4,50.6-9.4
			c18.8,0,35.6,3.4,50.3,10.2c14.7,6.8,26.2,16.4,34.3,28.9c8.1,12.4,12.2,26.6,12.2,42.4h-54.3c0-12.1-3.8-21.5-11.4-28.2
			c-7.6-6.7-18.3-10.1-32.1-10.1c-13.3,0-23.6,2.8-31,8.4s-11,13-11,22.2c0,8.6,4.3,15.8,12.9,21.5c8.6,5.8,21.3,11.2,38.1,16.3
			c30.9,9.3,53.4,20.8,67.5,34.6s21.2,30.9,21.2,51.4c0,22.8-8.6,40.7-25.9,53.7s-40.5,19.5-69.7,19.5c-20.3,0-38.8-3.7-55.4-11.1
			s-29.4-17.6-38.1-30.5c-8.8-12.9-13.1-27.9-13.1-44.9h54.5c0,29.1,17.4,43.6,52.2,43.6c12.9,0,23-2.6,30.2-7.9
			C273,1249.5,276.6,1242.2,276.6,1232.8z"/>
		<path class="st9" d="M520.5,1247.6h-95.3l-18.1,54.3h-57.8l98.2-263.7h50.3l98.7,263.7h-57.8L520.5,1247.6z M439.9,1203.6h65.9
			l-33.1-98.7L439.9,1203.6z"/>
		<path class="st9" d="M679.2,1209.1v92.9h-54.3v-263.7h102.9c19.8,0,37.2,3.6,52.2,10.9c15,7.2,26.6,17.5,34.7,30.9
			c8.1,13.3,12.1,28.5,12.1,45.5c0,25.8-8.8,46.2-26.5,61.1c-17.7,14.9-42.2,22.4-73.4,22.4H679.2z M679.2,1165.1h48.5
			c14.4,0,25.3-3.4,32.9-10.1c7.5-6.8,11.3-16.4,11.3-29c0-12.9-3.8-23.4-11.4-31.3c-7.6-8-18.1-12.1-31.5-12.3h-49.8V1165.1z"/>
		<path class="st9" d="M922.1,1258.3h115.4v43.6H867.8v-263.7h54.3V1258.3z"/>
		<path class="st9" d="M1143.3,1038.3l67.7,191.2l67.4-191.2h71.3V1302h-54.5v-72.1l5.4-124.4l-71.2,196.5h-37.3l-71-196.3
			l5.4,124.2v72.1h-54.3v-263.7H1143.3z"/>
	</g>
	<g>
		<path d="M1254,532.2c-8.1,87.4-32.2,184.7-90.8,261.9c-44.1,58-103.8,106.4-178.1,144.7c185.4-10,349.6-123.6,423.1-295.2
			c3.3-7.8,17.8-46.3,17.8-46.3S1334.1,550.6,1254,532.2z"/>
		<path d="M317,794.1c-58.6-77.1-82.7-174.4-90.8-261.7C146.5,550.8,55,597.3,55,597.3s14.4,38.5,17.8,46.3
			C146.2,815,309.9,928.5,495,938.8C420.7,900.5,361.1,852.1,317,794.1z"/>
		<path d="M577.2,866.6c-77.4-107.1-116.6-211.1-116.6-309.1c0-62,15.7-126.5,46.9-192.6c-99.9-36.2-198.7-44.3-198.7-44.3
			s-51.3,270.8,68.2,428.1c61.7,81.2,153.9,129.3,230,156.9C597.2,893.5,587.2,880.5,577.2,866.6z"/>
		<path d="M1171.4,320.6c0,0-98.3,8.1-198,44.1c31.2,66.2,47,130.7,47,192.8c0,98-39.2,202-116.6,309.1
			c-9.9,13.7-19.8,26.6-29.4,38.5c75.8-27.6,167.4-75.6,228.9-156.5C1222.7,591.4,1171.4,320.6,1171.4,320.6z"/>
		<path d="M740.5,939.5c0,0,204.7-184.6,204.7-382.1S740.5,175.4,740.5,175.4"/>
		<path d="M740.5,175.4c0,0-204.7,184.6-204.7,382.1s204.7,382.1,204.7,382.1"/>
	</g>
</g>
</svg>
