<?xml version="1.0" encoding="utf-8"?>
<!-- Generator: Adobe Illustrator 23.0.2, SVG Export Plug-In . SVG Version: 6.00 Build 0)  -->
<svg version="1.1" id="Layer_1" xmlns="http://www.w3.org/2000/svg" xmlns:xlink="http://www.w3.org/1999/xlink" x="0px" y="0px"
	 viewBox="0 0 1481 1481" style="enable-background:new 0 0 1481 1481;" xml:space="preserve">
<style type="text/css">
	.st0{fill:#121212;}
	.st1{fill:none;stroke:#231F20;stroke-width:10;stroke-miterlimit:10;}
	.st2{fill:none;stroke:#231F20;stroke-width:6.2261;stroke-miterlimit:10;}
	.st3{fill:#231F20;}
	.st4{fill:#FDD22E;}
	.st5{fill:#FBC211;}
	.st6{fill:#FEE5A0;}
	.st7{fill:#FFDD81;}
	.st8{fill:#010101;}
	.st9{fill:#171717;}
	.st10{fill:#B42025;}
	.st11{fill:#E23B30;}
	.st12{fill:#F0534D;}
	.st13{fill:#F16A67;}
	.st14{fill:#ED3043;}
	.st15{fill:#F26B6B;}
	.st16{fill:#E24445;}
	.st17{fill:#EE323F;}
	.st18{fill:#F37575;}
	.st19{fill:#42843E;}
	.st20{fill:#88C540;}
	.st21{fill:#7EC357;}
	.st22{fill:#8CC758;}
	.st23{fill:#66B045;}
	.st24{fill:#327284;}
	.st25{fill:#39BDAD;}
	.st26{fill:#31B5C3;}
	.st27{fill:#43C0BE;}
	.st28{fill:#249AB0;}
	.st29{fill:#853D67;}
	.st30{fill:#AD55A1;}
	.st31{fill:#C062A6;}
	.st32{fill:#B65EA5;}
	.st33{fill:#B14994;}
	.st34{fill:#B42126;}
	.st35{fill:#39B44A;}
	.st36{fill:#5FBB46;}
	.st37{fill:#7AC14F;}
	.st38{fill:#8BC970;}
	.st39{fill:#B53181;}
	.st40{fill:#E24588;}
	.st41{fill:#ED64A5;}
	.st42{fill:#EB7DB2;}
	.st43{fill:#31A4B5;}
	.st44{fill:#48AFE0;}
	.st45{fill:#66C8ED;}
	.st46{fill:#7FCEEA;}
	.st47{fill:#F16163;}
	.st48{fill:#EE3332;}
	.st49{fill:#F16364;}
	.st50{fill:#1F1B53;}
	.st51{fill:#4152A4;}
	.st52{fill:#221E52;}
	.st53{fill:#4153A4;}
	.st54{fill:#303871;}
	.st55{fill:#4555A5;}
	.st56{fill:#323972;}
	.st57{fill:#F1554A;}
	.st58{fill:#EA2D2F;}
	.st59{fill:#F1574B;}
	.st60{fill:#ED2024;}
	.st61{fill:#F9B9BA;}
	.st62{fill:#F59092;}
	.st63{fill:#EF3733;}
	.st64{fill:#EF3D3A;}
	.st65{fill:#F15E5F;}
	.st66{fill:#EA1D25;}
	.st67{fill:#EF5541;}
	.st68{fill:#EA2225;}
	.st69{fill:#FFFFFF;}
	.st70{fill:#FFFFFF;stroke:#171717;stroke-width:50;}
	.st71{fill:#FFFFFF;stroke:#171717;stroke-width:45;}
</style>
<g>
	<circle class="st71" cx="740.5" cy="740.5" r="718"/>
	<g>
		<path class="st9" d="M352.5,1068.2c0-8.6-3-15.2-9.1-19.8s-17-9.4-32.7-14.5c-15.8-5.1-28.2-10.1-37.4-15.1
			c-25-13.5-37.6-31.8-37.6-54.7c0-11.9,3.4-22.5,10.1-31.9c6.7-9.3,16.4-16.6,28.9-21.9s26.7-7.9,42.3-7.9
			c15.8,0,29.8,2.9,42.1,8.6c12.3,5.7,21.9,13.8,28.7,24.2c6.8,10.4,10.2,22.2,10.2,35.4h-45.4c0-10.1-3.2-17.9-9.5-23.6
			c-6.4-5.6-15.3-8.4-26.8-8.4c-11.1,0-19.7,2.3-25.9,7c-6.2,4.7-9.2,10.9-9.2,18.6c0,7.2,3.6,13.2,10.8,18s17.8,9.4,31.9,13.6
			c25.8,7.8,44.7,17.4,56.5,28.9c11.8,11.5,17.7,25.8,17.7,43c0,19.1-7.2,34.1-21.7,44.9c-14.4,10.9-33.9,16.3-58.3,16.3
			c-17,0-32.4-3.1-46.3-9.3c-13.9-6.2-24.6-14.7-31.9-25.5c-7.3-10.8-11-23.3-11-37.6h45.6c0,24.3,14.5,36.5,43.6,36.5
			c10.8,0,19.2-2.2,25.3-6.6C349.5,1082.2,352.5,1076,352.5,1068.2z"/>
		<path class="st9" d="M556.5,1080.6h-79.7l-15.1,45.4h-48.3l82.1-220.5h42.1l82.5,220.5h-48.3L556.5,1080.6z M489.1,1043.8h55.1
			l-27.7-82.5L489.1,1043.8z"/>
		<path class="st9" d="M689.2,1048.3v77.7h-45.4V905.5h86c16.6,0,31.1,3,43.7,9.1c12.6,6.1,22.2,14.7,29,25.8
			c6.8,11.2,10.1,23.9,10.1,38.1c0,21.6-7.4,38.6-22.2,51.1c-14.8,12.5-35.3,18.7-61.4,18.7H689.2z M689.2,1011.5h40.6
			c12,0,21.2-2.8,27.5-8.5c6.3-5.7,9.5-13.7,9.5-24.2c0-10.8-3.2-19.5-9.5-26.2c-6.4-6.7-15.1-10.1-26.4-10.3h-41.7V1011.5z"/>
		<path class="st9" d="M892.4,1089.5h96.5v36.5H847V905.5h45.4V1089.5z"/>
		<path class="st9" d="M1077.4,905.5l56.6,159.9l56.3-159.9h59.7V1126h-45.6v-60.3l4.5-104.1l-59.5,164.3h-31.2l-59.4-164.2
			l4.5,103.9v60.3H1018V905.5H1077.4z"/>
	</g>
	<g>
		<path class="st60" d="M1170,482.2c-6.8,73.1-26.9,154.5-76,219c-36.8,48.5-86.8,89-148.9,121c155.1-8.3,292.4-103.4,353.9-246.9
			c2.8-6.5,14.9-38.7,14.9-38.7S1237,497.6,1170,482.2z"/>
		<path class="st61" d="M386.3,701.3c-49-64.5-69.2-145.8-76-218.9c-66.7,15.4-143.2,54.3-143.2,54.3s12.1,32.2,14.9,38.8
			c61.4,143.3,198.4,238.2,353.2,246.8C473.1,790.3,423.2,749.7,386.3,701.3z"/>
		<path class="st62" d="M603.9,761.9c-64.7-89.6-97.5-176.6-97.5-258.6c0-51.9,13.2-105.8,39.2-161.1
			C462,312,379.4,305.2,379.4,305.2s-42.9,226.5,57,358c51.6,67.9,128.8,108.1,192.3,131.2C620.7,784.4,612.3,773.5,603.9,761.9z"/>
		<path class="st63" d="M1100.9,305.2c0,0-82.2,6.8-165.6,36.9c26.1,55.4,39.3,109.3,39.3,161.3c0,82-32.8,169-97.5,258.6
			c-8.3,11.5-16.6,22.2-24.6,32.2c63.4-23.1,140-63.2,191.4-130.9C1143.8,531.7,1100.9,305.2,1100.9,305.2z"/>
		<path class="st64" d="M740.5,822.9c0,0,171.2-154.4,171.2-319.5S740.5,183.8,740.5,183.8"/>
		<path class="st65" d="M740.5,183.8c0,0-171.2,154.4-171.2,319.5s171.2,319.5,171.2,319.5"/>
	</g>
</g>
</svg>
