<svg height="681pt" viewBox="-88 -21 681 681.33466" width="681pt" xmlns="http://www.w3.org/2000/svg"><path d="m484.714844 254.152344c-20.074219-20.070313-52.722656-20.070313-72.792969.003906l-79.832031 79.921875v-214.042969c0-28.378906-23.089844-51.46875-51.472656-51.46875-9.625 0-18.640626 2.667969-26.355469 7.285156v-24.300781c0-28.378906-23.089844-51.4687498-51.464844-51.4687498-28.382813 0-51.46875 23.0898438-51.46875 51.4687498v24.300781c-7.714844-4.617187-16.730469-7.285156-26.359375-7.285156-28.375 0-51.464844 23.089844-51.464844 51.46875v54.65625c-7.714844-4.617187-16.730468-7.285156-26.359375-7.285156-28.378906 0-51.46875 23.089844-51.46875 51.46875v120.851562c0 16.121094 25.113281 16.144532 25.113281 0v-120.851562c0-14.53125 11.820313-26.359375 26.355469-26.359375 14.535157 0 26.359375 11.828125 26.359375 26.359375v109.992188c0 16.121093 25.105469 16.140624 25.105469 0v-208.832032c0-14.53125 11.828125-26.355468 26.359375-26.355468s26.359375 11.824218 26.359375 26.355468v208.832032c0 16.121093 25.109375 16.140624 25.109375 0v-277.316407c0-14.53125 11.820312-26.359375 26.359375-26.359375 14.53125 0 26.351563 11.828125 26.351563 26.359375v277.316407c0 16.121093 25.113281 16.140624 25.113281 0v-208.832032c0-14.53125 11.824219-26.355468 26.355469-26.355468 14.535156 0 26.359374 11.824218 26.359374 26.355468v244.375c0 10.800782 13.707032 16.601563 21.4375 8.871094l101.265626-101.375c10.277343-10.277344 27.003906-10.277344 37.277343 0 10.277344 10.277344 10.277344 26.996094.007813 37.265625l-1.015625 1.011719c-49.699219 49.617187-88.222657 109.113281-114.488281 176.847656-13.859376 35.734375-32.726563 64.507812-56.066407 85.527344-30.34375 27.3125-68.304687 41.164062-112.835937 41.164062-89.203125 0-161.773438-72.574218-161.773438-161.773437v-11.574219c0-16.121094-25.109375-16.144531-25.109375 0v11.574219c0 103.050781 83.835938 186.886719 186.882813 186.886719 50.925781 0 94.539062-16.023438 129.636718-47.617188 26.292969-23.675781 47.378907-55.671875 62.671876-95.101562 25-64.460938 61.613281-121.035157 108.820312-168.160157l1.027344-1.023437c9.71875-9.722656 15.074218-22.644532 15.074218-36.394532 0-13.746093-5.355468-26.667968-15.074218-36.386718zm0 0"/><path d="m8.234375 402.921875c6.828125 0 12.539063-5.734375 12.542969-12.550781 0-6.828125-5.714844-12.554688-12.542969-12.554688-6.632813-.003906-12.246094 5.386719-12.542969 12.003906-.308594 7.03125 5.496094 13.101563 12.542969 13.101563zm0 0"/></svg>