<?xml version="1.0" encoding="utf-8"?>
<!-- Generator: Adobe Illustrator 23.0.2, SVG Export Plug-In . SVG Version: 6.00 Build 0)  -->
<svg version="1.1" id="Layer_1" xmlns="http://www.w3.org/2000/svg" xmlns:xlink="http://www.w3.org/1999/xlink" x="0px" y="0px"
	 viewBox="0 0 24.00945 24" enable-background="new 0 0 24.00945 24" xml:space="preserve">
<g>
	<g>
		<g>
			<path d="M20.73837,16.1916h-0.25313v-3.6637c0-0.15255-0.12365-0.27623-0.27623-0.27623
				c-0.15258,0-0.27623,0.12369-0.27623,0.27623v3.9399v1.24627v1.23656c0,0.45557-0.37065,0.82618-0.82618,0.82618
				c-0.45557,0-0.82614-0.37061-0.82614-0.82618V5.04933c0-0.45557,0.37061-0.82618,0.82614-0.82618
				c0.45557,0,0.82618,0.37061,0.82618,0.82618v1.23656v1.24627v3.67902c0,0.15255,0.12365,0.27623,0.27623,0.27623
				c0.15259,0,0.27623-0.12369,0.27623-0.27623V7.80836h0.25313c0.49591,0,0.89937-0.40346,0.89937-0.89937
				s-0.4035-0.89937-0.89937-0.89937h-0.25313V5.04933c0-0.76018-0.61843-1.37861-1.37865-1.37861
				c-0.45019,0-0.85064,0.21697-1.10238,0.55179c-0.25178-0.33482-0.65219-0.55179-1.10238-0.55179
				c-0.45019,0-0.85064,0.21697-1.10238,0.55179c-0.25178-0.33482-0.65218-0.55179-1.10238-0.55179
				c-0.45023,0-0.85068,0.21697-1.10242,0.55179c-0.25174-0.33482-0.65219-0.55179-1.10238-0.55179
				s-0.85064,0.21697-1.10238,0.55179c-0.25177-0.33482-0.65218-0.55179-1.10238-0.55179
				c-0.45019,0-0.85064,0.21697-1.10238,0.55179C8.93338,3.88769,8.53293,3.67072,8.08274,3.67072
				c-0.76014,0-1.37861,0.61847-1.37861,1.37861v0.96033H6.14048V4.34168c0-0.37001-0.30099-0.671-0.671-0.671H3.04279
				c-0.37008,0-0.67108,0.30103-0.67108,0.671v12.46c0,0.15255,0.12365,0.27623,0.27623,0.27623
				c0.15259,0,0.27623-0.12369,0.27623-0.27623v-12.46c0-0.06536,0.05321-0.11853,0.11853-0.11853H5.4694
				c0.06536,0,0.11853,0.05317,0.11853,0.11853v1.94418v1.24627v8.93563v1.24627v1.94417c0,0.06536-0.05321,0.11853-0.11853,0.11853
				H3.04271c-0.06536,0-0.11853-0.05317-0.11853-0.11853v-1.54143c0-0.15255-0.12365-0.27623-0.27623-0.27623
				c-0.15259,0-0.27623,0.12376-0.27623,0.27635v1.54143c0,0.37,0.30099,0.671,0.671,0.671H5.4694
				c0.37001,0,0.671-0.30099,0.671-0.671v-1.66798h0.56364v0.96033c0,0.76018,0.61847,1.37861,1.37861,1.37861
				c0.45023,0,0.85068-0.21697,1.10242-0.55179c0.25174,0.33482,0.65219,0.55179,1.10238,0.55179
				c0.45019,0,0.85064-0.21697,1.10238-0.55179c0.25177,0.33482,0.65218,0.55179,1.10238,0.55179s0.85064-0.21697,1.10238-0.55179
				c0.25178,0.33482,0.65222,0.55179,1.10242,0.55179s0.85064-0.21697,1.10238-0.55179
				c0.25178,0.33482,0.65218,0.55179,1.10238,0.55179c0.45019,0,0.85064-0.21697,1.10238-0.55179
				c0.25178,0.33482,0.65219,0.55179,1.10238,0.55179c0.76018,0,1.37865-0.61847,1.37865-1.37861v-0.96033h0.25313
				c0.49591,0,0.89937-0.40346,0.89937-0.89937S21.23424,16.1916,20.73837,16.1916z M20.4852,6.56213h0.25313
				c0.19131,0,0.34694,0.15563,0.34694,0.3469c0,0.19131-0.15563,0.3469-0.34694,0.3469H20.4852V6.56213z M6.70405,17.43787H6.1404
				v-0.69384h0.56364C6.70405,16.74403,6.70405,17.43787,6.70405,17.43787z M6.70405,16.1916H6.1404V7.8084h0.56364
				C6.70405,7.8084,6.70405,16.1916,6.70405,16.1916z M6.70405,7.25597H6.1404V6.56213h0.56364
				C6.70405,6.56213,6.70405,7.25597,6.70405,7.25597z M8.90884,18.95067c0,0.45557-0.37065,0.82618-0.82618,0.82618
				c-0.45557,0-0.82614-0.37061-0.82614-0.82618v-1.23656v-1.24627V7.53216V6.28589V5.04933
				c0-0.45557,0.37061-0.82618,0.82614-0.82618c0.45557,0,0.82618,0.37061,0.82618,0.82618V18.95067z M11.1136,18.95067
				c0,0.45557-0.37061,0.82618-0.82614,0.82618c-0.45557,0-0.82614-0.37061-0.82614-0.82618V5.04933
				c0-0.45557,0.37061-0.82618,0.82614-0.82618c0.45557,0,0.82614,0.37061,0.82614,0.82618V18.95067z M12.49224,19.77685
				c-0.45554,0-0.82618-0.37061-0.82618-0.82618V5.04933c0-0.45557,0.37061-0.82618,0.82614-0.82618
				c0.45554,0,0.82614,0.37061,0.82614,0.82618v13.90134h0.00004C13.31839,19.40624,12.94778,19.77685,12.49224,19.77685z
				 M15.52318,18.95067c0,0.45557-0.37061,0.82618-0.82614,0.82618c-0.45554,0-0.82618-0.37061-0.82618-0.82618V5.04933
				c0-0.45557,0.37065-0.82618,0.82618-0.82618c0.45553,0,0.82614,0.37061,0.82614,0.82618V18.95067z M17.72794,18.95067
				c0,0.45557-0.37061,0.82618-0.82614,0.82618c-0.45557,0-0.82614-0.37061-0.82614-0.82618V5.04933
				c0-0.45557,0.37061-0.82618,0.82614-0.82618c0.45557,0,0.82614,0.37061,0.82614,0.82618V18.95067z M20.73837,17.43787h-0.25313
				v-0.69384h0.25313c0.19131,0,0.34694,0.15563,0.34694,0.3469C21.0853,17.2822,20.92967,17.43787,20.73837,17.43787z"/>
		</g>
	</g>
	<g>
		<g>
			<path d="M4.8743,4.92952H3.63781c-0.24,0-0.43522,0.19526-0.43522,0.43525v1.23645c0,0.24,0.19522,0.43525,0.43522,0.43525
				H4.8743c0.24,0,0.43522-0.19526,0.43522-0.43525V5.36477C5.30952,5.12478,5.1143,4.92952,4.8743,4.92952z M4.75705,6.48401
				H3.75503V5.48195h1.00202V6.48401z"/>
		</g>
	</g>
</g>
</svg>
