<?xml version="1.0" encoding="utf-8"?>
<!-- Generator: Adobe Illustrator 23.0.2, SVG Export Plug-In . SVG Version: 6.00 Build 0)  -->
<svg version="1.1" id="Layer_1" xmlns="http://www.w3.org/2000/svg" xmlns:xlink="http://www.w3.org/1999/xlink" x="0px" y="0px"
	 viewBox="0 0 24.00945 24" enable-background="new 0 0 24.00945 24" xml:space="preserve">
<g>
	<path id="Path_131" d="M15.07937,16.07755c-0.10827-0.08684-0.26645-0.06946-0.35329,0.03882c0,0.00001,0,0.00001,0,0.00001
		l-0.96514,1.20324c-0.08684,0.10828-0.06946,0.26645,0.03883,0.35329c0.10828,0.08684,0.26645,0.06946,0.35329-0.03883l0,0
		l0.96514-1.20324c0.08684-0.10827,0.06946-0.26645-0.03882-0.35329C15.07937,16.07755,15.07937,16.07755,15.07937,16.07755z"/>
	<path id="Path_132" d="M16.48314,15.47593c-0.10827-0.08684-0.26645-0.06946-0.35329,0.03882c0,0.00001,0,0.00001,0,0.00001
		l-0.96514,1.20324c-0.08684,0.10828-0.06946,0.26645,0.03883,0.35329s0.26645,0.06945,0.35329-0.03883l0,0l0.96514-1.20324
		c0.08684-0.10827,0.06945-0.26645-0.03882-0.35329C16.48314,15.47593,16.48314,15.47593,16.48314,15.47593z"/>
	<path id="Path_133" d="M7.19606,17.58628c0.07266,0.00039,0.14192-0.03074,0.18987-0.08534L8.7065,15.9794
		c0.09096-0.10486,0.07969-0.26361-0.02517-0.35457c-0.10486-0.09097-0.26361-0.07969-0.35457,0.02517l-1.3227,1.52154
		c-0.09002,0.10595-0.07711,0.26482,0.02885,0.35484C7.07845,17.56509,7.13629,17.58632,7.19606,17.58628z"/>
	<path id="Path_134" d="M10.02537,16.07755c-0.10828-0.08684-0.26645-0.06946-0.35328,0.03882
		c0,0.00001-0.00001,0.00001-0.00001,0.00001L9.1895,16.71799c-0.08684,0.10828-0.06946,0.26645,0.03883,0.35329
		c0.10828,0.08684,0.26645,0.06945,0.35329-0.03883l0.48257-0.60162C10.15103,16.32257,10.13365,16.16438,10.02537,16.07755
		L10.02537,16.07755z"/>
	<path id="Path_135" d="M18.07123,16.67703c-0.10827-0.08684-0.26645-0.06945-0.35329,0.03882c0,0.00001,0,0.00001,0,0.00001
		l-0.48258,0.60162c-0.08684,0.10828-0.06946,0.26645,0.03883,0.35329c0.10829,0.08684,0.26645,0.06945,0.35329-0.03883l0,0
		l0.48258-0.60162c0.08684-0.10827,0.06945-0.26645-0.03882-0.35329C18.07123,16.67703,18.07123,16.67703,18.07123,16.67703z"/>
	<path id="Path_136" d="M7.3535,15.61717c-0.10828-0.08684-0.26645-0.06946-0.35328,0.03882c0,0.00001,0,0.00001-0.00001,0.00001
		l-0.48257,0.60162c-0.08684,0.10829-0.06945,0.26645,0.03883,0.35329c0.10828,0.08684,0.26645,0.06945,0.35329-0.03883
		l0.48257-0.60162C7.47917,15.86219,7.46179,15.70401,7.3535,15.61717C7.35351,15.61717,7.3535,15.61717,7.3535,15.61717z"/>
	<path id="Path_137" d="M20.28698,3.51742H3.72247c-0.1388,0-0.25131,0.11252-0.25131,0.25131v16.46254
		c0,0.1388,0.11252,0.25131,0.25131,0.25131c0,0,0,0,0,0h14.07399c0.1388,0,0.25131-0.11252,0.25131-0.25131
		s-0.11252-0.25131-0.25131-0.25131H3.97378v-4.79629h0.47873v3.03198c0,0.1388,0.11252,0.25131,0.25131,0.25131c0,0,0,0,0,0
		h4.21345c0.1388,0,0.25131-0.11252,0.25131-0.25131c0-0.1388-0.11252-0.25131-0.25131-0.25131H4.95514v-2.78066h0.48471v0.87085
		c-0.00003,0.1388,0.11247,0.25134,0.25127,0.25136s0.25134-0.11247,0.25136-0.25127c0-0.00003,0-0.00006,0-0.0001v-0.87085h5.12356
		v2.78066h-1.1435c-0.1388,0-0.25131,0.11252-0.25131,0.25131s0.11252,0.25131,0.25131,0.25131l0,0h9.38266
		c0.1388,0,0.25131-0.11252,0.25131-0.25131l0,0v-3.03198h0.47873v4.79629h-1.23353c-0.1388,0-0.25131,0.11252-0.25131,0.25131
		s0.11252,0.25131,0.25131,0.25131h1.48527c0.1388,0,0.25131-0.11252,0.25131-0.25131l0,0V3.76873
		C20.53829,3.62993,20.42578,3.51742,20.28698,3.51742C20.28698,3.51742,20.28698,3.51742,20.28698,3.51742z M5.43985,14.68103
		H3.97378v-0.89261h1.46607V14.68103z M5.43985,13.2858H3.97378v-0.89347h1.46607V13.2858z M5.43985,11.89013H3.97378v-0.89261
		h1.46607V11.89013z M5.43985,10.49489H3.97378V9.60185h1.46607V10.49489z M5.43985,9.09923H3.97378V8.20661h1.46607V9.09923z
		 M5.43985,7.70399H3.97378V6.81052h1.46607V7.70399z M5.43985,6.30832H3.97378V5.41528h1.46607V6.30832z M5.43985,4.91308H3.97378
		V4.02004h1.46607V4.91308z M5.94248,4.02004h12.1245v0.89261H5.94248V4.02004z M5.94248,6.81095h9.64293
		c0.1388-0.00003,0.25129-0.11257,0.25127-0.25136c-0.00003-0.13876-0.11251-0.25124-0.25127-0.25127H5.94248V5.41528h12.1245
		V6.3079h-1.47545c-0.1388-0.00003-0.25134,0.11247-0.25136,0.25127s0.11247,0.25134,0.25127,0.25136c0.00003,0,0.00006,0,0.0001,0
		h1.47545v0.89304H5.94248V6.81095z M5.94248,8.20661h12.1245v0.89261H5.94248V8.20661z M5.94248,9.60185h12.1245v0.89304H5.94248
		V9.60185z M5.94248,10.99752h12.1245v0.89261H5.94248V10.99752z M5.94248,12.39276h12.1245v0.89304H5.94248V12.39276z
		 M5.94248,14.68104v-0.89261h12.1245v0.89261H5.94248z M19.05388,17.96646h-6.11046v-1.35769
		c0.00013-0.1388-0.11229-0.25142-0.25108-0.25154c-0.1388-0.00013-0.25142,0.11229-0.25154,0.25108c0,0.00015,0,0.00031,0,0.00046
		v1.35556h-0.8717v-2.78066h0.87128v0.41943c0.00013,0.1388,0.11275,0.25121,0.25154,0.25108
		c0.13862-0.00013,0.25095-0.11247,0.25108-0.25108v-0.41985h5.12398v0.87085c0,0.1388,0.11252,0.25131,0.25131,0.25131
		s0.25131-0.11252,0.25131-0.25131l0,0v-0.87042h0.48471L19.05388,17.96646z M20.03524,14.68104H18.5696v-0.89261h1.46607
		L20.03524,14.68104z M20.03524,13.2858H18.5696v-0.89347h1.46607L20.03524,13.2858z M20.03524,11.89013H18.5696v-0.89261h1.46607
		L20.03524,11.89013z M20.03524,10.49489H18.5696V9.60185h1.46607L20.03524,10.49489z M20.03524,9.09923H18.5696V8.20661h1.46607
		L20.03524,9.09923z M20.03524,7.70399H18.5696V6.81052h1.46607L20.03524,7.70399z M20.03524,6.30832H18.5696V5.41528h1.46607
		L20.03524,6.30832z M20.03524,4.91308H18.5696V4.02004h1.46607L20.03524,4.91308z"/>
</g>
</svg>
