<?xml version="1.0" encoding="utf-8"?>
<!-- Generator: Adobe Illustrator 23.0.2, SVG Export Plug-In . SVG Version: 6.00 Build 0)  -->
<svg version="1.1" id="Layer_1" xmlns="http://www.w3.org/2000/svg" xmlns:xlink="http://www.w3.org/1999/xlink" x="0px" y="0px"
	 viewBox="0 0 24.00945 24" enable-background="new 0 0 24.00945 24" xml:space="preserve">
<g>
	<path d="M20.40704,5.83663c-0.67285-0.61035-1.50391-1.01904-2.40186-1.18262c-0.22852-0.0415-0.46484-0.06738-0.70361-0.07617
		l-0.95215-1.46777c-0.2124-0.32764-0.5415-0.55371-0.92578-0.63574c-0.38379-0.08154-0.77588-0.00977-1.10352,0.20313
		l-2.06104,1.33984c-0.32861,0.21387-0.55469,0.54395-0.63623,0.93066c-0.08105,0.38428-0.0083,0.77539,0.20508,1.10107
		l0.0625,0.09521L8.21319,8.49336L8.06622,8.42842C7.76593,8.30684,7.4461,8.24483,7.11554,8.24483
		c-0.65234,0-1.27344,0.24658-1.74951,0.69482c-0.5166,0.48828-0.80078,1.14795-0.80078,1.85742
		c0,0.18359,0.02051,0.36914,0.06055,0.5498c0.18066,0.82568,0.76172,1.50146,1.5293,1.81494v4.73877
		c-0.28369,0.05273-0.49902,0.30078-0.49902,0.59863v0.39453H4.41143c-0.7334,0-1.33057,0.59766-1.33057,1.33301v0.66992
		c0,0.36426,0.29688,0.66211,0.66162,0.66211h6.70947c0.36475,0,0.66113-0.29785,0.66113-0.66211v-0.66992
		c0-0.73535-0.59717-1.33301-1.33154-1.33301H8.57403v-0.39453c0-0.29785-0.21533-0.5459-0.49805-0.59863v-1.60645
		c0-0.1543-0.125-0.2793-0.27979-0.2793c-0.1543,0-0.27979,0.125-0.27979,0.2793v1.5957H6.71466v-4.57129
		c0.13379,0.02051,0.26807,0.03223,0.40088,0.03223c0.13525,0,0.26953-0.01172,0.40088-0.03223v1.68359
		c0,0.1543,0.12549,0.2793,0.27979,0.2793c0.15479,0,0.27979-0.125,0.27979-0.2793v-1.84033
		c0.28564-0.11621,0.55078-0.28467,0.78174-0.50098c0.52051-0.48779,0.80713-1.14941,0.80713-1.86377
		c0-0.27246-0.04297-0.5415-0.12793-0.7998L9.51641,9.94014l2.9292-1.87012l-0.06494,0.23828
		c-0.21582,0.8877-0.18115,1.81348,0.1001,2.67725c0.1582,0.48584,0.38818,0.77393,0.70215,0.88184
		c0.08984,0.03076,0.17969,0.04443,0.27002,0.04443c0.40674,0,0.81543-0.27686,1.18457-0.52686
		c0.12207-0.08252,0.23779-0.16064,0.34668-0.22559l0.01025-0.00586l0.54102-0.35254l0.11523,0.12402
		c0.39502,0.39111,0.9248,0.59961,1.46289,0.59961c0.24561,0,0.49268-0.04346,0.72949-0.13281
		c0.1416-0.05273,0.27734-0.12158,0.40186-0.20313c0.44482-0.28906,0.75977-0.73193,0.88623-1.24707
		c0.11572-0.46436,0.06494-0.95703-0.13721-1.38818l0.54248-0.35156l0.00977-0.00684
		c0.10303-0.07324,0.22119-0.14697,0.34619-0.22461c0.4624-0.28809,0.98633-0.61475,1.03271-1.13428
		C20.9544,6.50557,20.78497,6.17842,20.40704,5.83663z M10.55352,20.22676v0.66992l-0.10205,0.10156H3.74249l-0.10205-0.10156
		v-0.66992c0-0.42676,0.34619-0.77344,0.771-0.77344h5.37012C10.20733,19.45333,10.55352,19.8,10.55352,20.22676z M6.21563,18.89375
		v-0.39453l0.05029-0.0498h1.69971l0.04883,0.0498v0.39453H6.21563z M8.4754,12.25264
		c-0.37109,0.34717-0.854,0.53809-1.35986,0.53809c-0.14111,0-0.28516-0.01563-0.42725-0.04639l-0.16992-0.04541l-0.00049-0.00049
		c-0.67334-0.2124-1.19238-0.77344-1.3457-1.47168c-0.03125-0.14209-0.04736-0.28662-0.04736-0.42969
		c0-0.55371,0.22217-1.06934,0.62549-1.45068C6.1214,8.99727,6.60626,8.8044,7.11554,8.8044
		c0.2583,0,0.50732,0.04785,0.7417,0.14307c0.5459,0.21875,0.96436,0.66553,1.14795,1.22461v0.00049
		c0.06641,0.20117,0.1001,0.41162,0.1001,0.62451C9.10528,11.35469,8.88165,11.87178,8.4754,12.25264z M8.7337,8.82442
		l3.46387-2.21191l0.43994,0.6709l-3.36719,2.1499C9.1253,9.20235,8.94415,8.99678,8.7337,8.82442z M18.58819,9.80733
		c-0.09277,0.37695-0.32275,0.70068-0.64941,0.9126c-0.09082,0.06006-0.18848,0.10938-0.29199,0.14795
		c-0.55322,0.20898-1.18213,0.0752-1.60303-0.34033l-0.03369-0.03564l1.25342-0.81592l1.25586-0.81445
		C18.64288,9.15938,18.66778,9.48702,18.58819,9.80733z M20.36798,6.78633c-0.02197,0.2417-0.41992,0.49023-0.77148,0.70898
		c-0.125,0.07813-0.25391,0.1582-0.36963,0.24023L16.9588,9.20674l-2.26465,1.47461
		c-0.12207,0.07227-0.24854,0.15771-0.37061,0.24023c-0.34229,0.23193-0.73047,0.49512-0.95947,0.4165
		c-0.16748-0.05762-0.28369-0.31787-0.35107-0.52588c-0.24951-0.76514-0.27979-1.58496-0.08887-2.37109
		c0.08105-0.3291,0.19971-0.64795,0.35205-0.94727l-0.01563-0.28027l-0.96484-1.47119
		c-0.13086-0.2002-0.17529-0.44141-0.12549-0.6792c0.05078-0.23975,0.19043-0.44482,0.39404-0.57666l2.06104-1.33984
		c0.14746-0.0957,0.31641-0.14551,0.48926-0.14551l0.19287,0.02051c0.23779,0.05078,0.44141,0.19043,0.57227,0.39307l1.03271,1.5918
		c0.05127,0.07861,0.13867,0.12646,0.23291,0.12744c0.2583,0.00195,0.51416,0.02588,0.75977,0.0708
		c0.79541,0.14453,1.53027,0.50684,2.12646,1.04639C20.19366,6.39815,20.3836,6.60958,20.36798,6.78633
		C20.346,7.02803,20.3836,6.60958,20.36798,6.78633z"/>
	<path d="M7.57794,9.64327C7.43097,9.58418,7.2752,9.55391,7.11554,9.55391c-0.31836,0-0.62061,0.12061-0.85156,0.33936
		c-0.24805,0.23389-0.39014,0.56348-0.39014,0.90381c0,0.0918,0.00977,0.18164,0.02881,0.26758
		c0.10352,0.47266,0.4751,0.84424,0.94482,0.94629c0.08643,0.01953,0.17676,0.0293,0.26807,0.0293
		c0.31592,0,0.61719-0.11914,0.84961-0.33594c0.24951-0.23535,0.39209-0.56592,0.39209-0.90723
		c0-0.13428-0.021-0.26563-0.06299-0.39014C8.1795,10.05879,7.91876,9.78047,7.57794,9.64327z M7.58233,11.29659
		c-0.12744,0.11865-0.29297,0.18408-0.4668,0.18408l-0.14746-0.01611c-0.2583-0.05615-0.46191-0.26025-0.51904-0.52051
		l-0.01563-0.14697c0-0.18994,0.07617-0.3667,0.21484-0.49756c0.12695-0.11963,0.29248-0.18555,0.46729-0.18555l0.25342,0.04834
		c0.1875,0.07568,0.33105,0.229,0.39404,0.42041l0.00098,0.00195l0.03369,0.2124C7.79766,10.98799,7.721,11.16524,7.58233,11.29659z
		"/>
</g>
</svg>
