<?xml version="1.0" encoding="utf-8"?>
<!-- Generator: Adobe Illustrator 23.0.2, SVG Export Plug-In . SVG Version: 6.00 Build 0)  -->
<svg version="1.1" id="Layer_1" xmlns="http://www.w3.org/2000/svg" xmlns:xlink="http://www.w3.org/1999/xlink" x="0px" y="0px"
	 viewBox="0 0 24.00945 24" enable-background="new 0 0 24.00945 24" xml:space="preserve">
<g>
	<path d="M20.47897,12.95511c0.52629,0,0.9546-0.42874,0.9546-0.95561c0-0.52643-0.42831-0.95475-0.9546-0.95475H19.6386V9.85693
		h0.84037c0.52629,0,0.9546-0.42831,0.9546-0.9546c0-0.52643-0.42831-0.95475-0.9546-0.95475H19.6386V5.79148
		c0-0.78598-0.63952-1.4255-1.4255-1.4255H16.057V3.52575c0-0.52643-0.42831-0.95475-0.9546-0.95475
		c-0.52701,0-0.95575,0.42831-0.95575,0.95475v0.84037h-1.18682V3.52575c0-0.52643-0.42874-0.95475-0.95575-0.95475
		c-0.52629,0-0.9546,0.42831-0.9546,0.95475v0.84037H9.86151V3.52575c0-0.52643-0.42817-0.95475-0.9546-0.95475
		c-0.52629,0-0.9546,0.42831-0.9546,0.95475v0.84037H5.79606c-0.78584,0-1.42536,0.63938-1.42536,1.42536v2.15624H3.53034
		c-0.52629-0.00014-0.9546,0.42817-0.9546,0.9546s0.42831,0.9546,0.9546,0.9546H4.3707v1.18797H3.53034
		c-0.52629,0-0.9546,0.42817-0.9546,0.9546c0,0.52687,0.42831,0.95561,0.9546,0.95561H4.3707v1.18696H3.53034
		c-0.52629,0-0.9546,0.4286-0.9546,0.95561c0,0.52643,0.42831,0.9546,0.9546,0.9546H4.3707v2.15624
		c0,0.78598,0.63952,1.42536,1.4255,1.42536H7.9523v0.84037c0,0.52643,0.42831,0.95475,0.95475,0.95475
		c0.52629,0,0.9546-0.42831,0.9546-0.95475v-0.84037h1.18782v0.84037c0,0.52643,0.42831,0.95475,0.95475,0.95475
		c0.52701,0,0.95561-0.42831,0.95561-0.95475v-0.84037h1.18696v0.84037c0,0.52643,0.42874,0.95475,0.95561,0.95475
		c0.52643,0,0.9546-0.42831,0.9546-0.95475v-0.84037h2.15624c0.78598,0,1.4255-0.63938,1.4255-1.42536v-2.15624h0.84037
		c0.52629,0,0.9546-0.42817,0.9546-0.9546c0-0.52701-0.42831-0.95561-0.9546-0.95561h-0.84037v-1.18696H20.47897z
		 M20.47897,11.59938c0.22056,0,0.39997,0.17955,0.39997,0.40011c0,0.22113-0.17941,0.40098-0.39997,0.40098H19.6386v-0.80109
		H20.47897z M20.47897,8.50235c0.22056,0,0.39997,0.17941,0.39997,0.39997c0,0.22056-0.17941,0.39997-0.39997,0.39997H19.6386
		V8.50235H20.47897z M14.70128,3.52575c0-0.2207,0.17999-0.40011,0.40112-0.40011c0.22056,0,0.39997,0.17941,0.39997,0.40011
		v0.84037h-0.80109V3.52575z M11.60411,3.52575c0-0.2207,0.17941-0.40011,0.39997-0.40011
		c0.22113,0,0.40112,0.17941,0.40112,0.40011v0.84037h-0.80109V3.52575z M8.50693,3.52575c0-0.2207,0.17941-0.40011,0.39997-0.40011
		c0.2207,0,0.40011,0.17941,0.40011,0.40011v0.84037H8.50693V3.52575z M3.53034,9.30229c-0.22056,0-0.39997-0.17941-0.39997-0.39997
		c0-0.22056,0.17941-0.39997,0.39997-0.39997H4.3707v0.79994H3.53034z M3.53034,12.40047
		c-0.22056,0-0.39997-0.17984-0.39997-0.40098c0-0.22056,0.17941-0.39997,0.39997-0.39997H4.3707v0.80095H3.53034z
		 M3.53034,15.49765c-0.22056,0-0.39997-0.17941-0.39997-0.39997c0-0.22113,0.17941-0.40098,0.39997-0.40098H4.3707v0.80095H3.53034
		z M9.30702,20.47425c0,0.22056-0.17955,0.39997-0.40011,0.39997c-0.22056,0-0.39997-0.17941-0.39997-0.39997v-0.84037h0.80008
		V20.47425z M12.4052,20.47425c0,0.22056-0.17999,0.39997-0.40112,0.39997c-0.22056,0-0.39997-0.17941-0.39997-0.39997v-0.84037
		h0.80109V20.47425z M15.50237,20.47425c0,0.22056-0.17941,0.39997-0.39997,0.39997c-0.22113,0-0.40112-0.17941-0.40112-0.39997
		v-0.84037h0.80109V20.47425z M19.08397,18.20852c0,0.48011-0.39062,0.87073-0.87072,0.87073H5.79606
		c-0.48011,0-0.87072-0.39062-0.87072-0.87073V5.79148c0-0.48011,0.39062-0.87087,0.87072-0.87087H18.2131
		c0.48025,0,0.87087,0.39076,0.87087,0.87087V18.20852z M20.47897,14.6967c0.22056,0,0.39997,0.17984,0.39997,0.40098
		c0,0.22056-0.17941,0.39997-0.39997,0.39997H19.6386V14.6967H20.47897z"/>
	<path d="M14.41138,8.87038h-2.00992c-0.15323,0-0.27725,0.12416-0.27725,0.27724s0.12416,0.27724,0.27725,0.27724h2.00992
		c0.09064,0,0.16733,0.07712,0.16733,0.16833v4.81359c0,0.09064-0.07668,0.16718-0.16733,0.16718H9.59793
		c-0.09122,0-0.16833-0.07668-0.16833-0.16718V9.59321c0-0.0928,0.07553-0.16833,0.16833-0.16833h1.70375
		c0.15308,0,0.27725-0.12416,0.27725-0.27724s-0.12416-0.27724-0.27725-0.27724H9.59793c-0.39867,0-0.72297,0.32429-0.72297,0.72282
		v4.81359c0,0.3981,0.32429,0.72182,0.72297,0.72182h4.81345c0.3981,0,0.72196-0.32372,0.72196-0.72182V9.59321
		C15.13333,9.19453,14.80947,8.87038,14.41138,8.87038z"/>
	<path d="M17.87658,8.95944c0.15323,0,0.27739-0.12416,0.27739-0.27739c0-0.15308-0.12416-0.27724-0.27739-0.27724h-0.88439V8.02469
		c0-0.55809-0.4545-1.0123-1.0133-1.0123h-0.38012V6.128c0-0.15323-0.12416-0.27725-0.27724-0.27725
		c-0.15323,0-0.27739,0.12416-0.27739,0.27725V7.0124h-1.06826V6.128c0-0.15323-0.12416-0.27725-0.27739-0.27725
		c-0.15308,0-0.27724,0.12416-0.27724,0.27725V7.0124h-1.13977V6.128c0-0.15323-0.12416-0.27725-0.27724-0.27725
		c-0.15323,0-0.27739,0.12416-0.27739,0.27725V7.0124h-1.13963V6.128c0-0.15323-0.12416-0.27725-0.27739-0.27725
		c-0.15308,0-0.27725,0.12416-0.27725,0.27725V7.0124H8.96416V6.128c0-0.15323-0.12416-0.27725-0.27724-0.27725
		c-0.15323,0-0.27739,0.12416-0.27739,0.27725V7.0124H8.02956c-0.55823,0-1.0123,0.45421-1.0123,1.0123v0.38012H6.13273
		c-0.15323,0-0.27739,0.12416-0.27739,0.27724c0,0.15323,0.12416,0.27739,0.27739,0.27739h0.88439v1.06841H6.13273
		c-0.15323,0-0.27739,0.12416-0.27739,0.27725c0,0.15322,0.12416,0.27724,0.27739,0.27724h0.88439v1.13977H6.13273
		c-0.15323,0-0.27739,0.12416-0.27739,0.27724c0,0.15323,0.12416,0.27739,0.27739,0.27739h0.88439v1.13963H6.13273
		c-0.15323,0-0.27739,0.12416-0.27739,0.27739c0,0.15308,0.12416,0.27725,0.27739,0.27725h0.88439v1.06841H6.13273
		c-0.15323,0-0.27739,0.12416-0.27739,0.27724c0,0.15323,0.12416,0.27739,0.27739,0.27739h0.88439v0.38012
		c0,0.55866,0.45407,1.0133,1.0123,1.0133h0.38012v0.88439c0,0.15322,0.12416,0.27724,0.27724,0.27724
		s0.27725-0.12416,0.27725-0.27724v-0.88439h1.06841v0.88439c0,0.15322,0.12416,0.27724,0.27739,0.27724
		c0.15308,0,0.27724-0.12416,0.27724-0.27724v-0.88439h1.13963v0.88439c0,0.15322,0.12416,0.27724,0.27739,0.27724
		c0.15308,0,0.27724-0.12416,0.27724-0.27724v-0.88439h1.13977v0.88439c0,0.15322,0.12416,0.27724,0.27724,0.27724
		c0.15323,0,0.27739-0.12416,0.27739-0.27724v-0.88439h1.06841v0.88439c0,0.15322,0.12416,0.27724,0.27725,0.27724
		c0.15323,0,0.27724-0.12416,0.27724-0.27724v-0.88439h0.38012c0.55881,0,1.0133-0.45464,1.0133-1.0133v-0.38012h0.88454
		c0.15308,0,0.27725-0.12416,0.27725-0.27739c0-0.15308-0.12416-0.27724-0.27725-0.27724h-0.88454V13.971h0.88454
		c0.15308,0,0.27725-0.12416,0.27725-0.27725c0-0.15322-0.12416-0.27739-0.27725-0.27739h-0.88454v-1.13963h0.88454
		c0.15308,0,0.27725-0.12416,0.27725-0.27739c0-0.15308-0.12416-0.27724-0.27725-0.27724h-0.88454v-1.13977h0.88454
		c0.15308,0,0.27725-0.12416,0.27725-0.27724c0-0.15323-0.12416-0.27725-0.27725-0.27725h-0.88454V8.95944H17.87658z
		 M15.97888,16.43297H15.3421c-0.00676-0.00057-0.01367-0.00101-0.02057-0.00101c-0.00705,0-0.01381,0.00043-0.02072,0.00101
		h-1.58175c-0.00691-0.00057-0.01367-0.00101-0.02072-0.00101c-0.00691,0-0.01381,0.00043-0.02057,0.00101h-1.65311
		c-0.00676-0.00057-0.01367-0.00101-0.02057-0.00101c-0.00705,0-0.01381,0.00043-0.02072,0.00101h-1.65297
		c-0.00691-0.00057-0.01367-0.00101-0.02072-0.00101c-0.00691,0-0.01381,0.00043-0.02057,0.00101H8.70735
		c-0.00691-0.00057-0.01367-0.00101-0.02072-0.00101c-0.00691,0-0.01381,0.00043-0.02072,0.00101H8.02927
		c-0.25235,0-0.45766-0.20574-0.45766-0.45881V8.02469c0-0.25235,0.20531-0.45766,0.45766-0.45766h7.94947
		c0.25293,0,0.45867,0.20531,0.45867,0.45766v0.63679c-0.00043,0.00676-0.00101,0.01367-0.00101,0.02057
		c0,0.00705,0.00057,0.01381,0.00101,0.02072v1.58175c-0.00043,0.00691-0.00101,0.01367-0.00101,0.02072
		c0,0.00691,0.00057,0.01381,0.00101,0.02057v1.65297c-0.00043,0.00691-0.00101,0.01367-0.00101,0.02072
		s0.00057,0.01381,0.00101,0.02072v1.65297c-0.00043,0.00691-0.00101,0.01367-0.00101,0.02072
		c0,0.00691,0.00057,0.01381,0.00101,0.02057v1.58175c-0.00043,0.00691-0.00101,0.01367-0.00101,0.02072
		c0,0.00705,0.00057,0.01381,0.00101,0.02072v0.63664C16.43755,16.22723,16.23181,16.43297,15.97888,16.43297z"/>
</g>
</svg>
