<svg id="f12bb749-d6b6-4473-bc68-94d33d665d1a" data-name="Layer 1" xmlns="http://www.w3.org/2000/svg" viewBox="0 0 179.63 241.95"><defs><style>.f70f8ed6-f606-4938-9cf8-a32ed74cf48a{fill:#fff;}.a0cd4b2c-bc02-40df-b76c-7f2bf17d6620{fill:#2d2d2d;}</style></defs><title>bt</title><rect class="f70f8ed6-f606-4938-9cf8-a32ed74cf48a" x="0.87" y="0.84" width="177.88" height="240.28" rx="13.94" transform="translate(-0.14 0.1) rotate(-0.07)"/><path class="a0cd4b2c-bc02-40df-b76c-7f2bf17d6620" d="M14.94,242A14.7,14.7,0,0,1,.25,227.28L0,14.88A14.71,14.71,0,0,1,14.67.17l150-.17h0a14.71,14.71,0,0,1,14.69,14.67l.25,212.4A14.72,14.72,0,0,1,165,241.78v0L15,242ZM164.69,1.5h0l-150,.17A13.21,13.21,0,0,0,1.5,14.88l.25,212.4a13.2,13.2,0,0,0,13.19,13.17h0l150-.17a13.22,13.22,0,0,0,13.18-13.21l-.25-212.39A13.21,13.21,0,0,0,164.69,1.5Z"/><rect class="a0cd4b2c-bc02-40df-b76c-7f2bf17d6620" x="0.76" y="24.44" width="177.88" height="1.5" transform="translate(-0.03 0.12) rotate(-0.07)"/></svg>