<?xml version="1.0" encoding="utf-8"?>
<!-- Generator: Adobe Illustrator 23.0.2, SVG Export Plug-In . SVG Version: 6.00 Build 0)  -->
<svg version="1.1" id="Layer_1" xmlns="http://www.w3.org/2000/svg" xmlns:xlink="http://www.w3.org/1999/xlink" x="0px" y="0px"
	 viewBox="0 0 24.00945 24" enable-background="new 0 0 24.00945 24" xml:space="preserve">
<g>
	<path d="M11.68494,21.72675c-0.99987,0-1.81357-0.8137-1.81357-1.81357v-2.74755c0-1.14002-0.50569-2.23401-1.38685-3.00274
		c-1.17035-1.02288-1.83867-2.49967-1.83449-4.05281C6.65423,8.67617,7.22371,7.32802,8.25339,6.3156
		c1.01137-0.99464,2.34383-1.54268,3.7516-1.54268c1.48254,0.01883,2.79932,0.56896,3.80912,1.59079
		c0.99621,1.00928,1.5453,2.34592,1.5453,3.7631c0,1.55942-0.67774,3.0383-1.86011,4.057
		c-0.86495,0.74676-1.36122,1.84599-1.36122,3.01634v2.71303c0,0.99987-0.8137,1.81357-1.81357,1.81357H11.68494z
		 M10.52401,20.31271c0.17153,0.49575,0.63799,0.82834,1.16093,0.82834h0.63904c0.52347,0,0.98993-0.33259,1.16146-0.82834
		l0.07007-0.20081l-3.07438,0.07844L10.52401,20.31271z M10.45655,19.66844l3.15701-0.06066l-0.06066-0.80742l-3.09635,0.05962
		V19.66844z M10.45655,18.33703l3.15701-0.06066l-0.06066-0.80638l-3.09635,0.05962V18.33703z M11.80104,10.4364
		c0.76716,0,1.39103,0.62335,1.39103,1.38998v0.59406c0,0.36711-0.17885,0.71434-0.47797,0.92875l-0.03817,1.40358
		c0.25729,0.20709,0.38802,0.49575,0.38802,0.79801v1.45483l0.55171-0.06066l-0.0502-0.08472
		c0.08838-1.22578,0.64008-2.33337,1.5521-3.11884c1.05268-0.90888,1.65668-2.22565,1.65668-3.61459
		c0-2.59589-2.11112-4.73473-4.70649-4.76924c-1.31311,0-2.49078,0.47588-3.40489,1.37534
		c-0.91672,0.90156-1.42398,2.10223-1.42764,3.38031c-0.00471,1.38371,0.59093,2.69839,1.63368,3.60726
		c0.93398,0.81684,1.49405,1.93175,1.57667,3.13975l0.00994,0.1412l0.55014-0.05648l-0.06066-1.39417
		c0-0.58151,0.47326-1.05739,1.0553-1.05948h0.15113l-0.06066-0.98836l-0.34514,0.06066c-0.51196,0-0.92822-0.41626-0.92822-0.9277
		c0-0.51248,0.41626-0.92875,0.92822-0.92875c0.26879,0,0.52451,0.11609,0.70179,0.32004l0.1595,0.18303v-0.38384
		c0-0.4445-0.36135-0.80533-0.80586-0.80533h-0.69133c-0.16107,0-0.29233-0.13178-0.29233-0.29285
		c0-0.16107,0.13126-0.2918,0.29233-0.2918H11.80104z M12.00446,15.07595c-0.26147,0-0.47431,0.21336-0.47431,0.47483v1.45483
		l1.0098-0.06066l-0.06066-1.39417C12.4793,15.28932,12.26646,15.07595,12.00446,15.07595z M11.74561,12.29285
		c-0.18931,0-0.34305,0.15375-0.34305,0.34305s0.15375,0.34305,0.34305,0.34305h0.4058l-0.06066-0.34096
		C12.09075,12.44764,11.93596,12.29285,11.74561,12.29285z"/>
	<path d="M11.68487,21.666c-0.9664,0-1.75291-0.78651-1.75291-1.75291v-2.74755c0-1.15675-0.51301-2.26853-1.40776-3.04876
		c-1.15727-1.01137-1.81775-2.47143-1.81357-4.00679c0.00418-1.41718,0.56687-2.74964,1.58504-3.7516
		c0.99987-0.98313,2.31716-1.5249,3.70924-1.5249c1.46947,0.01883,2.78206,0.57733,3.76572,1.57301
		c0.98523,0.99778,1.52804,2.31873,1.52804,3.72022c0,1.54164-0.67041,3.00379-1.83919,4.01098
		c-0.87854,0.75827-1.38214,1.87423-1.38214,3.06236v2.71303c0,0.9664-0.78651,1.75291-1.75291,1.75291H11.68487z
		 M10.46641,20.33249c0.17989,0.51981,0.66937,0.86913,1.21846,0.86913h0.63904c0.54909,0,1.03909-0.34933,1.21898-0.86913
		l0.07008-0.20081h-3.21663L10.46641,20.33249z M10.39581,19.66835h3.21767v-0.86809h-3.21767V19.66835z M10.39581,18.33694h3.21767
		V17.4699h-3.21767V18.33694z M11.80096,10.49697c0.73369,0,1.33037,0.59616,1.33037,1.32932v0.59406
		c0,0.34723-0.16943,0.67669-0.45287,0.87959l-0.06328,0.04497v1.40776l0.0502,0.0502
		c0.21441,0.19035,0.33782,0.46228,0.33782,0.74781v1.45483h0.61237l0.01046-0.14119c0.08733-1.20905,0.63119-2.302,1.53118-3.077
		c1.06628-0.92038,1.6776-2.25493,1.6776-3.6606c0-2.62831-2.13779-4.79539-4.76611-4.82991c-0.00052,0-0.00105,0-0.00157,0
		c-1.33194,0-2.53418,0.4947-3.44672,1.39312C7.69167,7.603,7.17814,8.81832,7.17448,10.11313
		c-0.00471,1.40044,0.59877,2.7329,1.65459,3.65328c0.92143,0.80533,1.47418,1.90561,1.55576,3.09792l0.00994,0.14119h0.6108
		V15.5507c0-0.54909,0.44607-0.99673,0.99464-0.99882h0.15113v-1.04902h-0.4058c-0.47849,0-0.86756-0.38907-0.86756-0.86704
		c0-0.47902,0.38907-0.86809,0.86756-0.86809c0.25049,0,0.49,0.10877,0.65577,0.29912l0.26618,0.3054v-0.54595
		c0-0.47797-0.38855-0.86599-0.86652-0.86599h-0.69133c-0.1276,0-0.23166-0.10459-0.23166-0.23219
		c0-0.1276,0.10407-0.23114,0.23166-0.23114H11.80096z M12.00439,15.0152c-0.29494,0-0.53497,0.24055-0.53497,0.53549v1.45483
		h1.07047V15.5507C12.53988,15.25576,12.29985,15.0152,12.00439,15.0152z M11.74553,12.2321
		c-0.22277,0-0.40371,0.18094-0.40371,0.40371c0,0.22277,0.18094,0.40371,0.40371,0.40371h0.4058V12.6379
		C12.15133,12.41408,11.96935,12.2321,11.74553,12.2321z"/>
	<path d="M12.07663,7.22343c-0.08262-0.00105-0.15531-0.03138-0.21127-0.08785c-0.05543-0.05752-0.08472-0.13074-0.08419-0.20813
		c0.00209-0.15898,0.13283-0.28866,0.29128-0.28866c0.08524,0.00105,0.16002,0.03138,0.21598,0.08785
		c0.05491,0.05752,0.08419,0.13074,0.08367,0.20709C12.37,7.09688,12.2424,7.22343,12.08134,7.22343H12.07663z"/>
	<path d="M12.07655,7.16268c-0.06641-0.00105-0.12446-0.02615-0.16839-0.07007c-0.0434-0.04497-0.06694-0.10354-0.06641-0.1642
		c0.00157-0.12655,0.10511-0.22905,0.23062-0.22905c0.0706,0.00105,0.12917,0.02615,0.17309,0.07007
		c0.04288,0.04497,0.06641,0.1025,0.06589,0.1642c-0.00157,0.12864-0.1025,0.22905-0.23009,0.22905H12.07655z"/>
	<path d="M15.22579,10.41966c-0.16107,0-0.29233-0.13178-0.29233-0.29285c0-1.05216-0.5721-2.02588-1.49353-2.53837
		c-0.06746-0.03765-0.11714-0.10041-0.13858-0.17571s-0.01203-0.15479,0.02615-0.22173
		c0.05073-0.09308,0.14852-0.15061,0.2552-0.15061c0.05125,0,0.09936,0.01255,0.14224,0.03765
		c1.10603,0.61394,1.7937,1.78324,1.7937,3.04876C15.51864,10.28788,15.38738,10.41966,15.22579,10.41966z"/>
	<path d="M15.22572,10.35891c-0.1276,0-0.23166-0.10459-0.23166-0.23219c0-1.07517-0.58413-2.06772-1.52438-2.59171
		c-0.11139-0.06171-0.15165-0.20395-0.08942-0.31481c0.04079-0.07426,0.11819-0.11923,0.20238-0.11923
		c0.03922,0,0.0774,0.00941,0.11191,0.02928c1.08772,0.60452,1.76337,1.75291,1.76337,2.99647
		C15.4579,10.25432,15.35384,10.35891,15.22572,10.35891z"/>
	<path d="M12.00446,3.89333c-0.16107,0-0.29233-0.13074-0.29233-0.2918V2.5661c0-0.16107,0.13126-0.29285,0.29233-0.29285
		c0.16159,0,0.29285,0.13178,0.29285,0.29285v1.03543C12.29731,3.76259,12.16605,3.89333,12.00446,3.89333z"/>
	<path d="M12.00439,3.83258c-0.1276,0-0.23166-0.10354-0.23166-0.23114V2.56601c0-0.1276,0.10407-0.23219,0.23166-0.23219
		c0.12812,0,0.23219,0.10459,0.23219,0.23219v1.03543C12.23657,3.72903,12.13251,3.83258,12.00439,3.83258z"/>
	<path d="M18.5308,10.41966c-0.16159,0-0.29285-0.13178-0.29285-0.29285c0-0.16107,0.13126-0.2918,0.29285-0.2918h1.03543
		c0.16107,0,0.29232,0.13074,0.29232,0.2918c0,0.16107-0.13126,0.29285-0.29232,0.29285H18.5308z"/>
	<path d="M18.53072,10.35891c-0.12812,0-0.23219-0.10459-0.23219-0.23219s0.10406-0.23114,0.23219-0.23114h1.03543
		c0.1276,0,0.23166,0.10354,0.23166,0.23114s-0.10406,0.23219-0.23166,0.23219H18.53072z"/>
	<path d="M4.44322,10.41966c-0.16107,0-0.29233-0.13178-0.29233-0.29285c0-0.16107,0.13126-0.2918,0.29233-0.2918h1.03543
		c0.16159,0,0.29285,0.13074,0.29285,0.2918c0,0.16107-0.13126,0.29285-0.29285,0.29285H4.44322z"/>
	<path d="M4.44315,10.35891c-0.1276,0-0.23166-0.10459-0.23166-0.23219s0.10407-0.23114,0.23166-0.23114h1.03543
		c0.12812,0,0.23219,0.10354,0.23219,0.23114s-0.10407,0.23219-0.23219,0.23219H4.44315z"/>
	<path d="M17.35104,15.76624c-0.07792,0-0.15113-0.03033-0.20656-0.08576l-0.73212-0.73212
		c-0.05491-0.05543-0.08524-0.12864-0.08524-0.20604c0-0.07844,0.03033-0.15165,0.08524-0.20709
		c0.05543-0.05543,0.12864-0.08576,0.20709-0.08576c0.07792,0,0.15113,0.03033,0.20656,0.08576l0.73212,0.73212
		c0.05491,0.05439,0.08524,0.1276,0.08524,0.20709c0,0.07844-0.03033,0.15165-0.08524,0.20604
		C17.50269,15.73591,17.42948,15.76624,17.35104,15.76624z"/>
	<path d="M17.35096,15.70549c-0.06171,0-0.11975-0.02406-0.16368-0.06798l-0.73212-0.73212
		c-0.08995-0.08995-0.08995-0.23742,0-0.32736c0.04393-0.04393,0.10197-0.06798,0.1642-0.06798
		c0.06171,0,0.11975,0.02406,0.16368,0.06798l0.73212,0.73212c0.0434,0.04288,0.06746,0.10145,0.06746,0.1642
		c0,0.06171-0.02406,0.12028-0.06746,0.16316C17.47124,15.68143,17.41319,15.70549,17.35096,15.70549z"/>
	<path d="M7.39001,5.80521c-0.07792,0-0.15113-0.03033-0.20656-0.08576L6.4508,4.98733c-0.114-0.114-0.114-0.29912,0-0.41313
		c0.05543-0.05543,0.12864-0.08576,0.20709-0.08576c0.07844,0,0.15165,0.03033,0.20709,0.08576L7.5971,5.30632
		c0.114,0.114,0.11348,0.29912-0.00052,0.41417C7.54114,5.77488,7.46793,5.80521,7.39001,5.80521z"/>
	<path d="M7.38993,5.74446c-0.06171,0-0.11975-0.02406-0.16368-0.06798L6.49361,4.94435c-0.08995-0.08995-0.08995-0.23742,0-0.32736
		c0.04393-0.04393,0.10197-0.06798,0.1642-0.06798c0.06223,0,0.12028,0.02406,0.1642,0.06798l0.73212,0.73212
		c0.08995,0.08995,0.08995,0.23742-0.00052,0.32841C7.51021,5.7204,7.45216,5.74446,7.38993,5.74446z"/>
	<path d="M16.61944,5.80521c-0.07844,0-0.15165-0.03033-0.20709-0.08576c-0.114-0.114-0.114-0.29912,0-0.41313l0.73212-0.73212
		c0.05543-0.05543,0.12864-0.08576,0.20656-0.08576c0.07844,0,0.15165,0.03033,0.20708,0.08576
		c0.114,0.114,0.11348,0.29912-0.00052,0.41417L16.826,5.71945C16.77057,5.77488,16.69736,5.80521,16.61944,5.80521z"/>
	<path d="M16.61936,5.74446c-0.06223,0-0.12028-0.02406-0.1642-0.06798c-0.08995-0.08995-0.08995-0.23742,0-0.32736l0.73212-0.73212
		c0.04393-0.04393,0.10197-0.06798,0.16368-0.06798c0.06223,0,0.12028,0.02406,0.1642,0.06798
		c0.08995,0.08995,0.08995,0.23742-0.00052,0.32841l-0.7316,0.73107C16.73912,5.7204,16.68107,5.74446,16.61936,5.74446z"/>
	<path d="M6.65789,15.76624c-0.07792,0-0.15113-0.03033-0.20656-0.08576c-0.05543-0.05543-0.08576-0.12864-0.08576-0.20604
		c0-0.07844,0.03033-0.15165,0.08576-0.20709l0.73212-0.73212c0.05543-0.05543,0.12864-0.08576,0.20656-0.08576
		c0.07844,0,0.15165,0.03033,0.20709,0.08576c0.114,0.114,0.11348,0.29912-0.00052,0.41417l-0.7316,0.73107
		C6.80954,15.73591,6.73633,15.76624,6.65789,15.76624z"/>
	<path d="M6.65781,15.70549c-0.06171,0-0.11975-0.02406-0.16368-0.06798c-0.04393-0.04393-0.06798-0.10145-0.06798-0.16316
		c0-0.06275,0.02406-0.12028,0.06798-0.1642l0.73212-0.73212c0.04393-0.04393,0.10197-0.06798,0.16368-0.06798
		c0.06223,0,0.12028,0.02406,0.1642,0.06798c0.08995,0.08995,0.08995,0.23742-0.00052,0.32841l-0.7316,0.73108
		C6.77809,15.68143,6.71952,15.70549,6.65781,15.70549z"/>
</g>
</svg>
