<?xml version="1.0" encoding="utf-8"?>
<!-- Generator: Adobe Illustrator 23.0.2, SVG Export Plug-In . SVG Version: 6.00 Build 0)  -->
<svg version="1.1" id="Layer_1" xmlns="http://www.w3.org/2000/svg" xmlns:xlink="http://www.w3.org/1999/xlink" x="0px" y="0px"
	 viewBox="0 0 24.00945 24" enable-background="new 0 0 24.00945 24" xml:space="preserve">
<g>
	<path d="M15.05076,20.14434h-0.01351c-0.1646,0-0.29784,0.13339-0.29784,0.29784c0,0.16445,0.13324,0.29784,0.29784,0.29784
		h0.01351c0.16445,0,0.29784-0.13339,0.29784-0.29784C15.3486,20.27773,15.21521,20.14434,15.05076,20.14434z"/>
	<path d="M16.25051,20.14434H16.237c-0.1646,0-0.29784,0.13339-0.29784,0.29784c0,0.16445,0.13324,0.29784,0.29784,0.29784h0.01351
		c0.1646,0,0.29784-0.13339,0.29784-0.29784C16.54835,20.27773,16.41496,20.14434,16.25051,20.14434z"/>
	<path d="M18.3694,9.26555c0-0.82054-0.15342-1.61949-0.45577-2.37465c-0.06118-0.1528-0.23464-0.22687-0.38729-0.16585
		c-0.1528,0.06118-0.22703,0.23464-0.16585,0.38729c0.27408,0.68451,0.41306,1.40892,0.41306,2.15321
		c0,3.18556-2.58817,5.7773-5.76938,5.7773S6.2348,12.45111,6.2348,9.26555s2.58817-5.7773,5.76938-5.7773
		c1.849,0,3.59987,0.89787,4.6833,2.40167c0.09612,0.13355,0.28247,0.16367,0.41586,0.06755
		c0.13339-0.09612,0.16367-0.28231,0.06755-0.41586c-1.19524-1.65878-3.12671-2.64904-5.16671-2.64904
		c-3.5098,0-6.36522,2.85884-6.36522,6.37298s2.85542,6.37298,6.36522,6.37298S18.3694,12.7797,18.3694,9.26555z"/>
	<path d="M8.53569,12.99679c0.2042,0.11491,0.45903,0.20389,0.75827,0.20389c0.45654,0,1.01666-0.207,1.65847-0.84461
		c0.39567-0.39303,0.71059-0.84616,0.93824-1.3496c0.03572,0.00233,0.07159,0.00388,0.10777,0.00388
		c0.31104,0,0.60236-0.08603,0.85159-0.2351c0.12656,0.22392,0.2306,0.45701,0.30949,0.69615
		c0.06413,0.19535,0.10063,0.4067,0.13588,0.61121c0.07469,0.43201,0.15187,0.87892,0.51369,1.10099
		c0.13572,0.08308,0.29225,0.1247,0.47689,0.1247c0.16569,0,0.35405-0.03354,0.57006-0.10016h0.00016
		c0.82395-0.25467,2.07464-1.54759,2.04777-2.74408c-0.01336-0.59273-0.3334-1.37864-1.78301-1.75614
		c-0.53683-0.13929-1.08701-0.1792-1.63859-0.11926c-0.1278-0.25063-0.3171-0.46509-0.54816-0.6227
		c0.14799-0.20855,0.31508-0.40142,0.49971-0.57503c0.14954-0.14085,0.32548-0.26352,0.49552-0.38216
		c0.35949-0.25048,0.73109-0.5095,0.77939-0.93141c0.03416-0.30001-0.09907-0.60515-0.41959-0.96014l-0.00015-0.00015
		c-0.57844-0.63963-2.27729-1.2277-3.34908-0.69848c-0.53186,0.26259-1.10875,0.88529-0.83715,2.36083
		c0.10078,0.54708,0.29737,1.06341,0.58512,1.53765c-0.2219,0.28309-0.35483,0.63932-0.35483,1.02614
		c0,0.00124,0.00016,0.00233,0.00016,0.00357c-0.25607-0.00512-0.50872-0.03432-0.75454-0.0882
		C9.37812,9.2143,9.17764,9.13775,8.98369,9.06368C8.57467,8.90746,8.15182,8.7458,7.77649,8.94379
		c-0.26694,0.14085-0.44319,0.42331-0.555,0.88886C7.01962,10.67307,7.49278,12.41011,8.53569,12.99679z M13.66389,9.34335
		c0-0.05792-0.00311-0.11522-0.00885-0.17175c-0.00016-0.00031,0-0.00062,0-0.00093
		c0.44335-0.03618,0.88483,0.00202,1.31606,0.11383c0.87458,0.22781,1.32444,0.62922,1.33718,1.19292
		c0.01972,0.87722-1.00067,1.96764-1.62803,2.16144c-0.26585,0.08215-0.46462,0.09519-0.55965,0.03696
		c-0.13215-0.08106-0.18355-0.37906-0.23806-0.6946c-0.03711-0.21507-0.0792-0.45887-0.15715-0.696
		c-0.10389-0.31477-0.24427-0.62006-0.41834-0.91014c-0.00016-0.00062-0.00031-0.00124-0.00047-0.00186
		C13.53003,10.0895,13.66389,9.73188,13.66389,9.34335z M13.06805,9.34335c0,0.59071-0.47984,1.07133-1.06962,1.07133
		c-0.58963,0-1.06946-0.48061-1.06946-1.07133c0-0.59009,0.47984-1.07024,1.06946-1.07024
		C12.58822,8.27311,13.06805,8.75326,13.06805,9.34335z M11.20383,4.95276c0.20467-0.10094,0.45189-0.14411,0.71385-0.14411
		c0.74367,0,1.60381,0.348,1.92944,0.70795c0.18666,0.20669,0.28247,0.38185,0.26973,0.49304
		c-0.0177,0.15467-0.26554,0.3275-0.52813,0.51043c-0.17905,0.12485-0.38185,0.26632-0.56307,0.43698
		c-0.24271,0.22827-0.45949,0.4845-0.64677,0.76401c-0.00311-0.00078-0.00621-0.00093-0.00947-0.00155
		C12.25,7.69218,12.12593,7.67727,11.99844,7.67727c-0.31213,0-0.60438,0.08665-0.85439,0.23666
		c-0.00078,0-0.0014,0.00015-0.00202,0.00015c-0.2202-0.38635-0.37238-0.80299-0.45328-1.24245
		C10.52492,5.78075,10.69806,5.20246,11.20383,4.95276z M7.80102,9.97195V9.9718C7.86593,9.70066,7.956,9.52286,8.05461,9.47084
		C8.08536,9.45469,8.1234,9.44755,8.16735,9.44755c0.15156,0,0.37269,0.08448,0.60391,0.17283
		c0.2042,0.07795,0.43558,0.16631,0.67954,0.2202c0.32377,0.07097,0.65671,0.10528,0.9943,0.10311
		c0.00016,0,0.00031,0.00016,0.00031,0.00016c0.15622,0.40359,0.46493,0.73156,0.85517,0.91262
		c0.00062,0.00047,0.00124,0.00109,0.00171,0.00155c-0.19349,0.39862-0.45158,0.75935-0.76976,1.07536
		c-0.64118,0.63683-1.21481,0.81992-1.7049,0.54413C8.06315,12.04752,7.64698,10.61173,7.80102,9.97195z"/>
	<path d="M12.30917,8.54921c-0.0983-0.04006-0.20203-0.06041-0.3084-0.06041c-0.21057,0-0.41089,0.07951-0.56478,0.22455
		c-0.16367,0.15467-0.25762,0.37331-0.25762,0.59956c0,0.05854,0.00652,0.11786,0.01941,0.17672
		c0.06895,0.31384,0.31554,0.56012,0.62658,0.62689c0.05839,0.01289,0.11786,0.01941,0.17641,0.01941
		c0.21041,0,0.41027-0.0792,0.56245-0.22237c0.16585-0.15513,0.26104-0.37409,0.26104-0.60081
		c0-0.09084-0.01444-0.17874-0.04286-0.26119C12.70499,8.8222,12.53247,8.63897,12.30917,8.54921z M12.15559,9.47907
		c-0.04177,0.03944-0.09674,0.06103-0.15482,0.06103c-0.01553,0-0.0323-0.00186-0.05-0.00575
		c-0.08479-0.01817-0.15203-0.08603-0.17113-0.17237C11.77606,9.34552,11.7742,9.3286,11.7742,9.31291
		c0-0.06413,0.02531-0.1233,0.07066-0.16631c0.03013-0.02826,0.08153-0.06212,0.15591-0.06212
		c0.02935,0,0.05652,0.00528,0.08479,0.01693c0.06134,0.02454,0.11025,0.07671,0.13106,0.13929
		c0.00047,0.00155,0.00093,0.00295,0.0014,0.00435c0.00683,0.01972,0.01056,0.04317,0.01056,0.06786
		C12.22842,9.37611,12.20279,9.43497,12.15559,9.47907z"/>
	<path d="M16.60736,18.70747h-1.80428l-0.60345-2.32977c3.03089-0.9398,5.23892-3.77254,5.23892-7.11215
		c0-4.10377-3.3351-7.44245-7.43437-7.44245c-4.0988,0-7.43328,3.33867-7.43328,7.44245c0,3.33945,2.20741,6.1722,5.23783,7.11215
		l-0.60345,2.32977H7.40101c-0.69429,0-1.25907,0.5654-1.25907,1.26031v0.9488c0,0.69491,0.56478,1.26031,1.25907,1.26031h9.2062
		c0.69429,0,1.25907-0.5654,1.25907-1.26031v-0.9488C17.86627,19.27287,17.30149,18.70747,16.60736,18.70747z M5.16673,9.26555
		c0-3.77534,3.06723-6.84676,6.83745-6.84676c3.77084,0,6.83853,3.07142,6.83853,6.84676c0,3.77596-3.0677,6.84785-6.83853,6.84785
		C8.23396,16.1134,5.16673,13.04151,5.16673,9.26555z M14.18752,18.70747H9.82069l0.56385-2.17682
		c0.52161,0.11646,1.06341,0.17842,1.61964,0.17842c0.55608,0,1.09788-0.06196,1.61949-0.17842L14.18752,18.70747z
		 M17.27059,20.91659c0,0.36648-0.29753,0.66463-0.66323,0.66463H7.40101c-0.3657,0-0.66323-0.29815-0.66323-0.66463v-0.9488
		c0-0.36632,0.29753-0.66447,0.66323-0.66447h2.03411h0.00093h0.00078h0.6286v0.45716c0,0.16445,0.13339,0.29784,0.29784,0.29784
		s0.29784-0.13339,0.29784-0.29784v-0.45716h0.90672v0.45716c0,0.16445,0.13339,0.29784,0.29784,0.29784
		c0.16445,0,0.29784-0.13339,0.29784-0.29784v-0.45716h0.90672v0.45716c0,0.16445,0.13339,0.29784,0.29784,0.29784
		c0.1646,0,0.298-0.13339,0.298-0.29784v-0.45716h0.90548h0.00062h0.00093h2.03411c0.3657,0,0.66323,0.29815,0.66323,0.66447v0.9488
		H17.27059z"/>
</g>
</svg>
