<?xml version="1.0" encoding="utf-8"?>
<!-- Generator: Adobe Illustrator 23.0.2, SVG Export Plug-In . SVG Version: 6.00 Build 0)  -->
<svg version="1.1" id="Layer_1" xmlns="http://www.w3.org/2000/svg" xmlns:xlink="http://www.w3.org/1999/xlink" x="0px" y="0px"
	 viewBox="0 0 24 24" style="enable-background:new 0 0 24 24;" xml:space="preserve">
<g>
	<g>
		<path d="M15.53,10.2c-0.06,0.6-0.22,1.27-0.62,1.8c-0.3,0.4-0.71,0.73-1.22,0.99c1.27-0.07,2.4-0.85,2.91-2.03
			c0.02-0.05,0.12-0.32,0.12-0.32S16.08,10.33,15.53,10.2z"/>
		<path d="M9.09,12c-0.4-0.53-0.57-1.2-0.62-1.8c-0.55,0.13-1.18,0.45-1.18,0.45s0.1,0.26,0.12,0.32c0.5,1.18,1.63,1.96,2.9,2.03
			C9.8,12.73,9.39,12.4,9.09,12z"/>
		<path d="M10.88,12.5c-0.53-0.74-0.8-1.45-0.8-2.12c0-0.43,0.11-0.87,0.32-1.32c-0.69-0.25-1.36-0.3-1.36-0.3s-0.35,1.86,0.47,2.94
			c0.42,0.56,1.06,0.89,1.58,1.08C11.02,12.68,10.95,12.59,10.88,12.5z"/>
		<path d="M14.96,8.75c0,0-0.68,0.06-1.36,0.3c0.21,0.45,0.32,0.9,0.32,1.32c0,0.67-0.27,1.39-0.8,2.12
			c-0.07,0.09-0.14,0.18-0.2,0.26c0.52-0.19,1.15-0.52,1.57-1.07C15.31,10.61,14.96,8.75,14.96,8.75z"/>
		<path d="M12,13c0,0,1.41-1.27,1.41-2.62S12,7.75,12,7.75"/>
		<path d="M12,7.75c0,0-1.41,1.27-1.41,2.62S12,13,12,13"/>
	</g>
	<path d="M15.53,10.2c-0.06,0.6-0.22,1.27-0.62,1.8c-0.3,0.4-0.71,0.73-1.22,0.99c1.27-0.07,2.4-0.85,2.91-2.03
		c0.02-0.05,0.12-0.32,0.12-0.32S16.08,10.33,15.53,10.2z"/>
	<path d="M9.09,12c-0.4-0.53-0.57-1.2-0.62-1.8c-0.55,0.13-1.18,0.45-1.18,0.45s0.1,0.26,0.12,0.32c0.5,1.18,1.63,1.96,2.9,2.03
		C9.8,12.73,9.39,12.4,9.09,12z"/>
	<path d="M10.88,12.5c-0.53-0.74-0.8-1.45-0.8-2.12c0-0.43,0.11-0.87,0.32-1.32c-0.69-0.25-1.36-0.3-1.36-0.3s-0.35,1.86,0.47,2.94
		c0.42,0.56,1.06,0.89,1.58,1.08C11.02,12.68,10.95,12.59,10.88,12.5z"/>
	<path d="M14.96,8.75c0,0-0.68,0.06-1.36,0.3c0.21,0.45,0.32,0.9,0.32,1.32c0,0.67-0.27,1.39-0.8,2.12
		c-0.07,0.09-0.14,0.18-0.2,0.26c0.52-0.19,1.15-0.52,1.57-1.07C15.31,10.61,14.96,8.75,14.96,8.75z"/>
	<path d="M12,13c0,0,1.41-1.27,1.41-2.62S12,7.75,12,7.75"/>
	<path d="M12,7.75c0,0-1.41,1.27-1.41,2.62S12,13,12,13"/>
</g>
<path d="M8.07,22.5c-1.45,0-2.63-1.18-2.63-2.63V4.14c0-1.45,1.18-2.63,2.63-2.63h7.86c1.45,0,2.63,1.18,2.63,2.63v15.73
	c0,1.45-1.18,2.63-2.63,2.63H8.07z M9.72,21.16h4.56v-1.61H9.72V21.16z M6.52,18.21h10.95V3.82H6.52V18.21z"/>
</svg>
