<?xml version="1.0" encoding="utf-8"?>
<!-- Generator: Adobe Illustrator 23.0.2, SVG Export Plug-In . SVG Version: 6.00 Build 0)  -->
<svg version="1.1" id="Layer_1" xmlns="http://www.w3.org/2000/svg" xmlns:xlink="http://www.w3.org/1999/xlink" x="0px" y="0px"
	 viewBox="0 0 24.01 24" style="enable-background:new 0 0 24.01 24;" xml:space="preserve">
<g>
	<g>
		<path d="M19.16,15.44c0.44,0,0.81-0.36,0.81-0.81c0-0.44-0.36-0.81-0.81-0.81h-0.71v-1h0.71c0.44,0,0.81-0.36,0.81-0.81
			c0-0.44-0.36-0.81-0.81-0.81h-0.71V9.39c0-0.66-0.54-1.2-1.2-1.2h-1.82V7.48c0-0.44-0.36-0.81-0.81-0.81
			c-0.45,0-0.81,0.36-0.81,0.81v0.71h-1V7.48c0-0.44-0.36-0.81-0.81-0.81c-0.44,0-0.81,0.36-0.81,0.81v0.71h-1V7.48
			c0-0.44-0.36-0.81-0.81-0.81c-0.44,0-0.81,0.36-0.81,0.81v0.71H6.76c-0.66,0-1.2,0.54-1.2,1.2v1.82H4.85
			c-0.44,0-0.81,0.36-0.81,0.81c0,0.44,0.36,0.81,0.81,0.81h0.71v1H4.85c-0.44,0-0.81,0.36-0.81,0.81c0,0.45,0.36,0.81,0.81,0.81
			h0.71v1H4.85c-0.44,0-0.81,0.36-0.81,0.81c0,0.44,0.36,0.81,0.81,0.81h0.71v1.82c0,0.66,0.54,1.2,1.2,1.2h1.82v0.71
			c0,0.44,0.36,0.81,0.81,0.81c0.44,0,0.81-0.36,0.81-0.81v-0.71h1v0.71c0,0.44,0.36,0.81,0.81,0.81c0.45,0,0.81-0.36,0.81-0.81
			v-0.71h1v0.71c0,0.44,0.36,0.81,0.81,0.81c0.44,0,0.81-0.36,0.81-0.81v-0.71h1.82c0.66,0,1.2-0.54,1.2-1.2v-1.82h0.71
			c0.44,0,0.81-0.36,0.81-0.81c0-0.45-0.36-0.81-0.81-0.81h-0.71v-1C18.45,15.44,19.16,15.44,19.16,15.44z M19.16,14.3
			c0.19,0,0.34,0.15,0.34,0.34c0,0.19-0.15,0.34-0.34,0.34h-0.71V14.3H19.16z M19.16,11.68c0.19,0,0.34,0.15,0.34,0.34
			c0,0.19-0.15,0.34-0.34,0.34h-0.71v-0.68H19.16z M14.28,7.48c0-0.19,0.15-0.34,0.34-0.34c0.19,0,0.34,0.15,0.34,0.34v0.71h-0.68
			V7.48z M11.67,7.48c0-0.19,0.15-0.34,0.34-0.34c0.19,0,0.34,0.15,0.34,0.34v0.71h-0.68V7.48z M9.05,7.48
			c0-0.19,0.15-0.34,0.34-0.34c0.19,0,0.34,0.15,0.34,0.34v0.71H9.05V7.48z M4.85,12.36c-0.19,0-0.34-0.15-0.34-0.34
			c0-0.19,0.15-0.34,0.34-0.34h0.71v0.68H4.85z M4.85,14.97c-0.19,0-0.34-0.15-0.34-0.34c0-0.19,0.15-0.34,0.34-0.34h0.71v0.68H4.85
			z M4.85,17.59c-0.19,0-0.34-0.15-0.34-0.34c0-0.19,0.15-0.34,0.34-0.34h0.71v0.68H4.85z M9.73,21.79c0,0.19-0.15,0.34-0.34,0.34
			c-0.19,0-0.34-0.15-0.34-0.34v-0.71h0.68V21.79z M12.34,21.79c0,0.19-0.15,0.34-0.34,0.34c-0.19,0-0.34-0.15-0.34-0.34v-0.71h0.68
			V21.79z M14.96,21.79c0,0.19-0.15,0.34-0.34,0.34c-0.19,0-0.34-0.15-0.34-0.34v-0.71h0.68V21.79z M17.98,19.88
			c0,0.41-0.33,0.74-0.74,0.74H6.76c-0.41,0-0.74-0.33-0.74-0.74V9.39c0-0.41,0.33-0.74,0.74-0.74h10.49c0.41,0,0.74,0.33,0.74,0.74
			C17.98,9.39,17.98,19.88,17.98,19.88z M19.16,16.91c0.19,0,0.34,0.15,0.34,0.34c0,0.19-0.15,0.34-0.34,0.34h-0.71v-0.68H19.16z"/>
		<path d="M14.04,11.99h-1.7c-0.13,0-0.23,0.1-0.23,0.23c0,0.13,0.1,0.23,0.23,0.23h1.7c0.08,0,0.14,0.07,0.14,0.14v4.07
			c0,0.08-0.06,0.14-0.14,0.14H9.97c-0.08,0-0.14-0.06-0.14-0.14V12.6c0-0.08,0.06-0.14,0.14-0.14h1.44c0.13,0,0.23-0.1,0.23-0.23
			c0-0.13-0.1-0.23-0.23-0.23H9.97c-0.34,0-0.61,0.27-0.61,0.61v4.07c0,0.34,0.27,0.61,0.61,0.61h4.07c0.34,0,0.61-0.27,0.61-0.61
			V12.6C14.65,12.26,14.37,11.99,14.04,11.99z"/>
		<path d="M16.96,12.07c0.13,0,0.23-0.1,0.23-0.23c0-0.13-0.1-0.23-0.23-0.23h-0.75v-0.32c0-0.47-0.38-0.86-0.86-0.86h-0.32V9.67
			c0-0.13-0.1-0.23-0.23-0.23c-0.13,0-0.23,0.1-0.23,0.23v0.75h-0.9V9.67c0-0.13-0.1-0.23-0.23-0.23c-0.13,0-0.23,0.1-0.23,0.23
			v0.75h-0.96V9.67c0-0.13-0.1-0.23-0.23-0.23c-0.13,0-0.23,0.1-0.23,0.23v0.75h-0.96V9.67c0-0.13-0.1-0.23-0.23-0.23
			c-0.13,0-0.23,0.1-0.23,0.23v0.75h-0.9V9.67c0-0.13-0.1-0.23-0.23-0.23c-0.13,0-0.23,0.1-0.23,0.23v0.75H8.65
			c-0.47,0-0.86,0.38-0.86,0.86v0.32H7.04c-0.13,0-0.23,0.1-0.23,0.23c0,0.13,0.1,0.23,0.23,0.23h0.75v0.9H7.04
			c-0.13,0-0.23,0.1-0.23,0.23c0,0.13,0.1,0.23,0.23,0.23h0.75v0.96H7.04c-0.13,0-0.23,0.1-0.23,0.23c0,0.13,0.1,0.23,0.23,0.23
			h0.75v0.96H7.04c-0.13,0-0.23,0.1-0.23,0.23c0,0.13,0.1,0.23,0.23,0.23h0.75v0.9H7.04c-0.13,0-0.23,0.1-0.23,0.23
			c0,0.13,0.1,0.23,0.23,0.23h0.75v0.32c0,0.47,0.38,0.86,0.86,0.86h0.32v0.75c0,0.13,0.1,0.23,0.23,0.23c0.13,0,0.23-0.1,0.23-0.23
			v-0.75h0.9v0.75c0,0.13,0.1,0.23,0.23,0.23c0.13,0,0.23-0.1,0.23-0.23v-0.75h0.96v0.75c0,0.13,0.1,0.23,0.23,0.23
			c0.13,0,0.23-0.1,0.23-0.23v-0.75h0.96v0.75c0,0.13,0.1,0.23,0.23,0.23c0.13,0,0.23-0.1,0.23-0.23v-0.75h0.9v0.75
			c0,0.13,0.1,0.23,0.23,0.23c0.13,0,0.23-0.1,0.23-0.23v-0.75h0.32c0.47,0,0.86-0.38,0.86-0.86v-0.32h0.75
			c0.13,0,0.23-0.1,0.23-0.23c0-0.13-0.1-0.23-0.23-0.23h-0.75v-0.9h0.75c0.13,0,0.23-0.1,0.23-0.23c0-0.13-0.1-0.23-0.23-0.23
			h-0.75v-0.96h0.75c0.13,0,0.23-0.1,0.23-0.23c0-0.13-0.1-0.23-0.23-0.23h-0.75v-0.96h0.75c0.13,0,0.23-0.1,0.23-0.23
			c0-0.13-0.1-0.23-0.23-0.23h-0.75v-0.9H16.96z M15.36,18.38h-0.54c-0.01,0-0.01,0-0.02,0c-0.01,0-0.01,0-0.02,0h-1.34
			c-0.01,0-0.01,0-0.02,0c-0.01,0-0.01,0-0.02,0h-1.4c-0.01,0-0.01,0-0.02,0c-0.01,0-0.01,0-0.02,0h-1.4c-0.01,0-0.01,0-0.02,0
			c-0.01,0-0.01,0-0.02,0H9.22c-0.01,0-0.01,0-0.02,0c-0.01,0-0.01,0-0.02,0H8.65c-0.21,0-0.39-0.17-0.39-0.39v-6.71
			c0-0.21,0.17-0.39,0.39-0.39h6.71c0.21,0,0.39,0.17,0.39,0.39v0.54c0,0.01,0,0.01,0,0.02c0,0.01,0,0.01,0,0.02v1.34
			c0,0.01,0,0.01,0,0.02c0,0.01,0,0.01,0,0.02v1.4c0,0.01,0,0.01,0,0.02s0,0.01,0,0.02v1.4c0,0.01,0,0.01,0,0.02
			c0,0.01,0,0.01,0,0.02v1.34c0,0.01,0,0.01,0,0.02s0,0.01,0,0.02v0.54C15.75,18.2,15.58,18.38,15.36,18.38z"/>
	</g>
	<g>
		<path d="M10.09,4.43H5.7c-0.06,0-0.11-0.04-0.11-0.09v-0.4c0-0.05,0.05-0.09,0.11-0.09h4.39c0.06,0,0.11-0.04,0.11-0.09V2.85
			c0-0.08,0.12-0.12,0.19-0.06l1.66,1.29c0.04,0.03,0.04,0.09,0,0.12l-1.66,1.29c-0.07,0.05-0.19,0.02-0.19-0.06V4.51
			C10.2,4.46,10.16,4.43,10.09,4.43z"/>
		<path d="M11.96,2.72l1.66-1.29c0.07-0.05,0.19-0.02,0.19,0.06v0.92c0,0.05,0.05,0.09,0.11,0.09h4.39c0.06,0,0.11,0.04,0.11,0.09
			v0.4c0,0.05-0.05,0.09-0.11,0.09h-4.39c-0.06,0-0.11,0.04-0.11,0.09v0.92c0,0.08-0.12,0.12-0.19,0.06l-1.66-1.29
			C11.91,2.81,11.91,2.75,11.96,2.72z"/>
	</g>
</g>
</svg>
