<?xml version="1.0" encoding="utf-8"?>
<!-- Generator: Adobe Illustrator 23.0.2, SVG Export Plug-In . SVG Version: 6.00 Build 0)  -->
<svg version="1.1" id="Layer_1" xmlns="http://www.w3.org/2000/svg" xmlns:xlink="http://www.w3.org/1999/xlink" x="0px" y="0px"
	 viewBox="0 0 24.00945 24" enable-background="new 0 0 24.00945 24" xml:space="preserve">
<g>
	<g>
		<g>
			<path d="M21.28616,8.67193h-1.46442l-0.02629-0.11424c-0.17744-0.77046-0.85349-1.3085-1.64402-1.3085h-4.8915
				c-0.79057,0-1.46662,0.53808-1.64402,1.3085l-0.02629,0.11424h-1.00427c-0.559,0-1.10882-0.09693-1.63408-0.28812
				L8.89017,8.36157C8.976,8.25122,9.03478,8.12042,9.05959,7.97893c0.13588-0.77559-0.30258-1.53394-1.0425-1.8033L5.90435,5.40665
				C5.16447,5.13733,4.34111,5.43647,3.94665,6.118c-0.07197,0.12434-0.111,0.26231-0.11617,0.402L3.38016,6.35611
				C2.87409,6.17202,2.31233,6.43377,2.12808,6.93999L1.80586,7.82526c-0.08924,0.2452-0.0777,0.51051,0.03258,0.74697
				c0.11032,0.2365,0.30607,0.4159,0.55127,0.5051l0.59446,0.21639c0.15596,0.05682,0.32843-0.02364,0.38521-0.1796
				c0.05678-0.15596-0.02364-0.32843-0.1796-0.38521L2.59531,8.51248c-0.09433-0.0343-0.16966-0.10334-0.2121-0.19431
				c-0.04244-0.091-0.04688-0.19303-0.01254-0.28739l0.32222-0.88526c0.07089-0.19471,0.28691-0.29561,0.48166-0.2246
				l5.57112,2.02774c0.59142,0.21523,1.21036,0.32438,1.83969,0.32438h0.86591l-0.17948,0.77943
				c-0.03727,0.16177,0.06367,0.3231,0.22544,0.36032c0.16169,0.03723,0.32302-0.06367,0.36028-0.22544l0.21054-0.91431h1.75133
				v0.84687c0,0.16598,0.13452,0.30054,0.30054,0.30054c0.16602,0,0.30054-0.13456,0.30054-0.30054V9.27304h2.57051v0.84687
				c0,0.16598,0.13452,0.30054,0.30054,0.30054c0.16598,0,0.30054-0.13456,0.30054-0.30054V9.27304h1.75133l0.21049,0.91431
				c0.03202,0.13905,0.15576,0.23318,0.2926,0.23318c0.02236,0,0.045-0.00253,0.06772-0.00773
				c0.16173-0.03723,0.26271-0.19855,0.22544-0.36028l-0.17944-0.77947h1.32601c0.20725,0,0.37583,0.16858,0.37583,0.37583v0.94208
				c0,0.20721-0.16858,0.37583-0.37583,0.37583H10.17975c-0.55912,0-1.10902-0.09697-1.63432-0.28823L4.51655,9.21181
				c-0.15604-0.05686-0.32839,0.02364-0.38521,0.1796c-0.05678,0.15596,0.02364,0.32843,0.1796,0.38521l1.2411,0.45181v5.70187
				c-0.3784,0.27866-0.62452,0.72706-0.62452,1.232c0,0.84331,0.68607,1.52934,1.52933,1.52934s1.52933-0.68607,1.52933-1.52934
				c0-0.5049-0.24608-0.95326-0.62448-1.23192v-0.49032h7.40936c0.16602,0,0.30054-0.13456,0.30054-0.30054
				s-0.13452-0.30054-0.30054-0.30054H7.36175v-0.60761h9.82007v0.60761h-1.00435c-0.16602,0-0.30054,0.13456-0.30054,0.30054
				s0.13452,0.30054,0.30054,0.30054h1.00435v0.49028c-0.3784,0.27866-0.62452,0.72706-0.62452,1.232
				c0,0.84331,0.68607,1.52933,1.52933,1.52933s1.52933-0.68607,1.52933-1.52933c0-0.50494-0.24612-0.9533-0.62452-1.232v-4.3626
				h2.29466c0.53864,0,0.97691-0.43826,0.97691-0.97691V9.64875C22.26303,9.11011,21.8248,8.67193,21.28616,8.67193z
				 M8.46753,7.87518C8.4489,7.98157,8.37881,8.03639,8.33866,8.05955c-0.04011,0.0232-0.12274,0.05662-0.22412,0.01968
				L4.60607,6.80227c-0.10146-0.03691-0.14318-0.11553-0.159-0.15908C4.4312,6.59962,4.41276,6.51259,4.46686,6.4191
				C4.65383,6.09608,4.9938,5.90959,5.34928,5.90959c0.11645,0,0.23462,0.02008,0.34954,0.06187l2.11274,0.76897
				C8.27715,6.90986,8.55296,7.38711,8.46753,7.87518z M13.81933,8.67193h-1.612c0.1215-0.48475,0.55094-0.82171,1.05264-0.82171
				h0.5594v0.82171H13.81933z M14.42041,8.67193V7.85022h2.57051v0.82171H14.42041z M17.592,8.67193V7.85022h0.5594
				c0.50174,0,0.93114,0.33696,1.05264,0.82171H17.592z M6.15311,10.44722l0.60761,0.2212v4.99493
				c-0.09822-0.01988-0.19984-0.03041-0.30382-0.03041c-0.10399,0-0.20557,0.01054-0.30378,0.03041V10.44722z M7.38516,17.16222
				c0,0.51187-0.41646,0.9283-0.9283,0.9283s-0.9283-0.41642-0.9283-0.9283s0.41646-0.9283,0.9283-0.9283
				S7.38516,16.65035,7.38516,17.16222z M17.78286,11.56774h0.60756v4.09552c-0.09822-0.01988-0.1998-0.03041-0.30378-0.03041
				c-0.10399,0-0.20557,0.01054-0.30378,0.03041V11.56774z M7.36175,13.63023v-2.74302l0.97807,0.35604
				c0.59146,0.21534,1.21044,0.3245,1.83993,0.3245h7.00207v2.06253H7.36175V13.63023z M19.01494,17.16222
				c0,0.51187-0.41646,0.9283-0.9283,0.9283c-0.51183,0-0.9283-0.41642-0.9283-0.9283s0.41646-0.9283,0.9283-0.9283
				S19.01494,16.65035,19.01494,17.16222z"/>
			<circle cx="6.45686" cy="17.16222" r="0.28687"/>
			<circle cx="18.08664" cy="17.16222" r="0.28687"/>
		</g>
	</g>
</g>
</svg>
