<svg xmlns="http://www.w3.org/2000/svg" width="56.268" height="56.268" viewBox="0 0 56.268 56.268">
  <g id="Group_336" data-name="Group 336" transform="translate(-196 -424.456)">
    <g id="Ellipse_7" data-name="Ellipse 7" transform="translate(196 424.456)" fill="none" stroke="#212121" stroke-width="2">
      <circle cx="28.134" cy="28.134" r="28.134" stroke="none"/>
      <circle cx="28.134" cy="28.134" r="27.134" fill="none"/>
    </g>
    <g id="privacy_1_" data-name="privacy (1)" transform="translate(210.077 432.036)">
      <path id="Path_19" data-name="Path 19" d="M27.258,16.489a3.327,3.327,0,0,0-4.7,0L17.4,21.651V7.828a3.322,3.322,0,0,0-5.026-2.853V3.405a3.324,3.324,0,1,0-6.647,0V4.975A3.322,3.322,0,0,0,.7,7.828v3.53a3.3,3.3,0,0,0-1.7-.47,3.328,3.328,0,0,0-3.324,3.324v7.8a.811.811,0,0,0,1.622,0v-7.8a1.7,1.7,0,0,1,1.7-1.7,1.7,1.7,0,0,1,1.7,1.7v7.1a.811.811,0,0,0,1.621,0V7.828a1.7,1.7,0,0,1,3.4,0V21.314a.811.811,0,0,0,1.622,0V3.405a1.7,1.7,0,1,1,3.4,0V21.314a.811.811,0,0,0,1.622,0V7.828a1.7,1.7,0,0,1,3.4,0V23.61a.82.82,0,0,0,1.384.573l6.54-6.547a1.7,1.7,0,0,1,2.408,2.407l-.066.065a32.722,32.722,0,0,0-7.394,11.421,14.231,14.231,0,0,1-3.621,5.523A10.539,10.539,0,0,1,7.745,39.71,10.459,10.459,0,0,1-2.7,29.263v-.747a.811.811,0,0,0-1.622,0v.747A12.083,12.083,0,0,0,7.745,41.332a12.113,12.113,0,0,0,8.372-3.075,15.824,15.824,0,0,0,4.047-6.142,31.113,31.113,0,0,1,7.028-10.86l.066-.066a3.323,3.323,0,0,0,0-4.7Zm0,0" transform="translate(4.324 -0.082)" fill="#212121"/>
      <path id="Path_20" data-name="Path 20" d="M-3.51,379.438a.819.819,0,0,0,.81-.811.819.819,0,0,0-.81-.811.819.819,0,0,0-.81.775A.819.819,0,0,0-3.51,379.438Zm0,0" transform="translate(4.321 -353.423)" fill="#212121"/>
    </g>
  </g>
</svg>
