<svg xmlns="http://www.w3.org/2000/svg" width="56.268" height="56.268" viewBox="0 0 56.268 56.268">
  <g id="Group_335" data-name="Group 335" transform="translate(-42 -373)">
    <g id="Ellipse_3" data-name="Ellipse 3" transform="translate(42 373)" fill="none" stroke="#212121" stroke-width="2">
      <circle cx="28.134" cy="28.134" r="28.134" stroke="none"/>
      <circle cx="28.134" cy="28.134" r="27.134" fill="none"/>
    </g>
    <g id="user-shape" transform="translate(53.911 383.828)">
      <g id="Group_14" data-name="Group 14">
        <path id="Path_10" data-name="Path 10" d="M118.537,17.815a8.582,8.582,0,0,0,6.3-2.61,8.582,8.582,0,0,0,2.61-6.3,8.583,8.583,0,0,0-2.61-6.3,8.905,8.905,0,0,0-12.6,0,8.582,8.582,0,0,0-2.61,6.3,8.581,8.581,0,0,0,2.61,6.3A8.583,8.583,0,0,0,118.537,17.815Z" transform="translate(-102.206 0)" fill="#212121"/>
        <path id="Path_11" data-name="Path 11" d="M50.847,211.883a23.749,23.749,0,0,0-.325-2.528,19.668,19.668,0,0,0-.615-2.517,11.937,11.937,0,0,0-1-2.262,8.147,8.147,0,0,0-1.438-1.879,6.056,6.056,0,0,0-1.983-1.241,6.973,6.973,0,0,0-2.587-.464,2.835,2.835,0,0,0-.974.5q-.765.5-1.728,1.114a10.973,10.973,0,0,1-2.505,1.113,9.861,9.861,0,0,1-6.193,0A10.97,10.97,0,0,1,29,202.6q-.963-.615-1.728-1.114a2.835,2.835,0,0,0-.974-.5,6.968,6.968,0,0,0-2.586.464,6.054,6.054,0,0,0-1.983,1.241,8.157,8.157,0,0,0-1.438,1.879,11.954,11.954,0,0,0-1,2.262,19.67,19.67,0,0,0-.615,2.517,23.609,23.609,0,0,0-.325,2.528q-.081,1.172-.081,2.4a5.782,5.782,0,0,0,1.693,4.4,6.258,6.258,0,0,0,4.5,1.612H44.735a6.258,6.258,0,0,0,4.5-1.612,5.779,5.779,0,0,0,1.694-4.4Q50.929,213.054,50.847,211.883Z" transform="translate(-18.268 -184.662)" fill="#212121"/>
      </g>
    </g>
  </g>
</svg>
