<?xml version="1.0" encoding="utf-8"?>
<!-- Generator: Adobe Illustrator 23.0.2, SVG Export Plug-In . SVG Version: 6.00 Build 0)  -->
<svg version="1.1" id="Layer_1" xmlns="http://www.w3.org/2000/svg" xmlns:xlink="http://www.w3.org/1999/xlink" x="0px" y="0px"
	 viewBox="0 0 56.3 56.3" style="enable-background:new 0 0 56.3 56.3;" xml:space="preserve">
<style type="text/css">
	.st0{fill:none;}
	.st1{fill:none;stroke:#212121;stroke-width:2;}
	.st2{fill:#212121;}
</style>
<g id="Group_332" transform="translate(-283 -292)">
	<g id="Ellipse_9" transform="translate(283 292)">
		<circle class="st0" cx="28.1" cy="28.1" r="28.1"/>
		<circle class="st1" cx="28.1" cy="28.1" r="27.1"/>
	</g>
	<path id="Path_141" class="st0" d="M291,300h40.3v40.3H291V300z"/>
</g>
<path class="st2" d="M41.5,19.1l-12-12h-2.1v15.9l-9.6-9.6l-3,3l11.7,11.7L14.8,39.8l3,3l9.6-9.6v15.9h2.1l12-12l-9-9
	C32.4,28.1,41.5,19.1,41.5,19.1z M31.6,15.2l3.9,3.9l-3.9,3.9V15.2z M35.5,37.1l-3.9,3.9v-7.9C31.6,33.2,35.5,37.1,35.5,37.1z"/>
</svg>
