<svg xmlns="http://www.w3.org/2000/svg" width="160.92" height="160.92" viewBox="0 0 160.92 160.92">
  <g id="Group_331" data-name="Group 331" transform="translate(-100 -240)">
    <circle id="Ellipse_8" data-name="Ellipse 8" cx="80.46" cy="80.46" r="80.46" transform="translate(100 240)" fill="#629ddd"/>
    <g id="microphone-black-shape" transform="translate(143 267)">
      <g id="Group_1" data-name="Group 1">
        <path id="Path_1" data-name="Path 1" d="M166.714,73.926a20.591,20.591,0,0,0,20.534-20.534V20.536a19.771,19.771,0,0,0-6.031-14.5,20.449,20.449,0,0,0-29.006,0,19.772,19.772,0,0,0-6.032,14.5V53.392a20.593,20.593,0,0,0,20.535,20.534Z" transform="translate(-129.75)" fill="#fff"/>
        <path id="Path_2" data-name="Path 2" d="M145.795,183.944a4.106,4.106,0,0,0-6.994,2.887v8.215a28.814,28.814,0,0,1-28.75,28.75A28.811,28.811,0,0,1,81.3,195.045v-8.215a4.107,4.107,0,0,0-8.215,0v8.215a36.959,36.959,0,0,0,32.857,36.705v8.472H89.516a4.108,4.108,0,0,0,0,8.215h41.07a4.108,4.108,0,0,0,0-8.215H114.159v-8.472a36.963,36.963,0,0,0,32.857-36.705v-8.215A3.946,3.946,0,0,0,145.795,183.944Z" transform="translate(-73.087 -141.653)" fill="#fff"/>
      </g>
    </g>
  </g>
</svg>
