<svg xmlns="http://www.w3.org/2000/svg" width="56.268" height="56.268" viewBox="0 0 56.268 56.268">
  <g id="Group_334" data-name="Group 334" transform="translate(-42 -212.27)">
    <g id="Ellipse_3" data-name="Ellipse 3" transform="translate(42 212.27)" fill="none" stroke="#212121" stroke-width="2">
      <circle cx="28.134" cy="28.134" r="28.134" stroke="none"/>
      <circle cx="28.134" cy="28.134" r="27.134" fill="none"/>
    </g>
    <g id="settings" transform="translate(50.663 220.932)">
      <g id="Group_11" data-name="Group 11" transform="translate(0 0)">
        <path id="Path_8" data-name="Path 8" d="M36.767,15.309l-2.72-.461a15.358,15.358,0,0,0-1.093-2.639l1.6-2.242A2.387,2.387,0,0,0,34.3,6.882L31.886,4.469a2.376,2.376,0,0,0-1.692-.7,2.352,2.352,0,0,0-1.384.445l-2.25,1.6a15.2,15.2,0,0,0-2.736-1.125L23.37,2a2.391,2.391,0,0,0-2.364-2H17.6a2.391,2.391,0,0,0-2.364,2l-.47,2.752a14.98,14.98,0,0,0-2.631,1.109l-2.226-1.6a2.391,2.391,0,0,0-3.084.259L4.4,6.93a2.4,2.4,0,0,0-.259,3.084l1.619,2.275a15,15,0,0,0-1.077,2.647L2,15.39a2.391,2.391,0,0,0-2,2.364v3.408a2.391,2.391,0,0,0,2,2.364l2.752.47a14.98,14.98,0,0,0,1.109,2.631L4.266,28.843a2.387,2.387,0,0,0,.259,3.084L6.937,34.34a2.376,2.376,0,0,0,1.692.7,2.352,2.352,0,0,0,1.384-.445l2.275-1.619a15.314,15.314,0,0,0,2.558,1.052l.453,2.72a2.391,2.391,0,0,0,2.364,2h3.416a2.391,2.391,0,0,0,2.364-2l.461-2.72a15.358,15.358,0,0,0,2.639-1.093l2.242,1.6a2.377,2.377,0,0,0,1.392.445h0a2.376,2.376,0,0,0,1.692-.7l2.412-2.412a2.4,2.4,0,0,0,.259-3.084l-1.6-2.25A15.248,15.248,0,0,0,34.031,23.9l2.72-.453a2.391,2.391,0,0,0,2-2.364V17.672A2.363,2.363,0,0,0,36.767,15.309Zm-.186,5.772a.21.21,0,0,1-.178.21l-3.4.567a1.087,1.087,0,0,0-.874.8,12.959,12.959,0,0,1-1.409,3.392,1.094,1.094,0,0,0,.049,1.19l2,2.817a.22.22,0,0,1-.024.275l-2.412,2.412a.206.206,0,0,1-.154.065.2.2,0,0,1-.121-.04l-2.809-2a1.094,1.094,0,0,0-1.19-.049,12.959,12.959,0,0,1-3.392,1.409,1.074,1.074,0,0,0-.8.874l-.575,3.4a.21.21,0,0,1-.21.178H17.671a.21.21,0,0,1-.21-.178L16.894,33a1.087,1.087,0,0,0-.8-.874,13.456,13.456,0,0,1-3.319-1.36,1.121,1.121,0,0,0-.55-.146,1.066,1.066,0,0,0-.631.2L8.759,32.842a.241.241,0,0,1-.121.04.217.217,0,0,1-.154-.065L6.071,30.406a.22.22,0,0,1-.024-.275l1.991-2.793a1.108,1.108,0,0,0,.049-1.2,12.837,12.837,0,0,1-1.425-3.384,1.109,1.109,0,0,0-.874-.8l-3.424-.583a.21.21,0,0,1-.178-.21V17.753a.21.21,0,0,1,.178-.21l3.376-.567a1.1,1.1,0,0,0,.882-.809,12.946,12.946,0,0,1,1.384-3.4,1.081,1.081,0,0,0-.057-1.182L5.934,8.752a.22.22,0,0,1,.024-.275L8.37,6.064A.206.206,0,0,1,8.524,6a.2.2,0,0,1,.121.04l2.793,1.991a1.108,1.108,0,0,0,1.2.049A12.837,12.837,0,0,1,16.02,6.655a1.109,1.109,0,0,0,.8-.874L17.4,2.357a.21.21,0,0,1,.21-.178h3.408a.21.21,0,0,1,.21.178L21.8,5.732a1.1,1.1,0,0,0,.809.882,13.139,13.139,0,0,1,3.473,1.425,1.094,1.094,0,0,0,1.19-.049l2.793-2.008a.241.241,0,0,1,.121-.04.217.217,0,0,1,.154.065L32.752,8.42a.22.22,0,0,1,.024.275l-2,2.809a1.094,1.094,0,0,0-.049,1.19,12.959,12.959,0,0,1,1.409,3.392,1.074,1.074,0,0,0,.874.8l3.4.575a.21.21,0,0,1,.178.21V21.08Z" transform="translate(0 -0.001)" fill="#212121"/>
        <path id="Path_9" data-name="Path 9" d="M144.462,136a8.362,8.362,0,1,0,8.362,8.362A8.367,8.367,0,0,0,144.462,136Zm0,14.539a6.176,6.176,0,1,1,6.176-6.176A6.181,6.181,0,0,1,144.462,150.54Z" transform="translate(-125.083 -124.992)" fill="#212121"/>
      </g>
    </g>
  </g>
</svg>
