<?xml version="1.0" encoding="utf-8"?>
<!-- Generator: Adobe Illustrator 23.0.2, SVG Export Plug-In . SVG Version: 6.00 Build 0)  -->
<svg version="1.1" id="Layer_1" xmlns="http://www.w3.org/2000/svg" xmlns:xlink="http://www.w3.org/1999/xlink" x="0px" y="0px"
	 viewBox="0 0 24 24" style="enable-background:new 0 0 24 24;" xml:space="preserve">
<style type="text/css">
	.st0{fill:none;}
</style>
<circle cx="12" cy="12" r="5"/>
<g>
	<path class="st0" d="M6.3,6.3C4.9,7.8,4,9.8,4,12c0,4.4,3.6,8,8,8s8-3.6,8-8s-3.6-8-8-8v8L6.3,6.3z"/>
	<path class="st0" d="M6.3,6.3L12,12V4"/>
	<path d="M4.9,4.9l1.4,1.4"/>
	<path d="M12,4V2"/>
	<path d="M12,2v2c4.4,0,8,3.6,8,8s-3.6,8-8,8s-8-3.6-8-8c0-2.2,0.9-4.2,2.3-5.7L4.9,4.9C3.1,6.7,2,9.2,2,12c0,5.5,4.5,10,10,10
		s10-4.5,10-10S17.5,2,12,2z"/>
</g>
</svg>
